<svg version="1.1" viewBox="0.0 0.0 660.0 409.0" fill="none" stroke="none" stroke-linecap="square" stroke-miterlimit="10" width="660" height="409" xmlns:xlink="http://www.w3.org/1999/xlink" xmlns="http://www.w3.org/2000/svg"><path fill="#ffffff" d="M0 0L660.0 0L660.0 409.0L0 409.0L0 0Z" fill-rule="nonzero"/><path fill="#b00788" d="M168.97568 184.98427C186.23987 132.47144 253.02077 95.26083 330.0 95.26083L330.0 210.92416Z" fill-rule="nonzero"/><path fill="#50044f" d="M495.23334 235.70917C495.23334 299.58826 421.25586 351.3725 330.0 351.3725C238.74416 351.3725 164.76666 299.58826 164.76666 235.70917L164.76666 210.92416C164.76666 274.80325 238.74416 326.5875 330.0 326.5875C421.25586 326.5875 495.23334 274.80325 495.23334 210.92416Z" fill-rule="nonzero"/><path fill="#720671" d="M330.0 95.26083C400.2467 95.26083 462.8142 126.351425 485.98547 172.77199C509.1567 219.19255 487.86566 270.79395 432.9053 301.4181C377.94492 332.04224 301.33148 334.99365 241.90228 308.77615C182.47307 282.5587 153.22139 232.90437 168.97568 184.98427L330.0 210.92416Z" fill-rule="nonzero"/><path fill="#000000" d="M20.35625 118.20493Q20.48125 118.14243 20.559376 118.14243L20.746876 118.14243Q20.79375 118.14243 20.934376 118.12681Q21.528126 118.07993 21.6375 118.01743Q21.91875 117.87681 22.10625 117.50181Q22.5125 116.70493 23.028126 115.25181Q23.2625 114.54868 23.325 114.40806Q23.528126 113.93931 23.7 113.42368L24.434376 111.36118Q24.60625 110.87681 25.2625 109.14243Q25.434376 108.70493 25.66875 107.97056L25.8875 107.95493L26.16875 107.97056Q26.496876 108.62681 26.7625 109.39243Q26.903126 109.79868 27.215626 110.61118L28.403126 113.81431L29.04375 115.56431Q29.54375 117.04868 29.7 117.39243Q29.85625 117.72056 29.98125 117.82993Q30.028126 117.86118 30.278126 117.92368Q30.528126 117.98618 30.6375 118.01743Q30.996876 118.12681 31.1375 118.18931Q31.16875 118.28306 31.16875 118.32993Q31.16875 118.36118 31.1375 118.43931Q30.8875 118.45493 30.79375 118.45493Q30.3875 118.45493 29.3875 118.42368L28.60625 118.40806L27.653126 118.42368Q27.559376 118.42368 27.465626 118.40806Q27.371876 118.39243 27.29375 118.39243L27.121876 118.39243Q27.04375 118.39243 26.965626 118.34556Q26.965626 118.23618 27.0125 118.14243Q27.10625 118.09556 27.184376 118.07993L27.996876 118.03306Q28.325 118.01743 28.48125 117.93931Q28.528126 117.79868 28.528126 117.73618Q28.528126 117.59556 28.325 117.00181Q28.184376 116.61118 28.075 116.26743Q27.98125 115.90806 27.246876 113.95493Q26.934376 113.89243 26.684376 113.89243L25.0125 113.90806L24.528126 113.90806Q24.2625 113.90806 23.934376 113.93931Q23.840626 114.17368 23.809376 114.28306L23.121876 116.42368Q22.684376 117.65806 22.684376 117.78306Q22.684376 117.84556 22.746876 118.01743Q22.91875 118.06431 23.184376 118.09556L24.246876 118.18931Q24.340626 118.26743 24.340626 118.31431Q24.340626 118.36118 24.309376 118.43931Q23.965626 118.43931 23.778126 118.43931Q23.153126 118.43931 22.325 118.40806Q21.934376 118.39243 21.778126 118.39243Q21.60625 118.39243 21.2 118.40806Q20.934376 118.42368 20.825 118.42368Q20.6375 118.42368 20.325 118.39243L20.325 118.34556Q20.325 118.29868 20.35625 118.20493ZM24.090626 113.51743Q24.934376 113.56431 25.996876 113.56431Q26.60625 113.56431 27.075 113.51743Q26.996876 113.22056 26.8875 112.95493Q26.3875 111.59556 26.325 111.45493L25.621876 109.64243L25.54375 109.50181Q25.496876 109.59556 25.2 110.31431Q24.7 111.53306 24.48125 112.20493Q24.371876 112.51743 24.2625 112.81431Q24.153126 113.11118 24.121876 113.23618Q24.10625 113.36118 24.04375 113.48618L24.090626 113.51743ZM31.7625 118.17368Q31.8875 118.09556 32.10625 118.06431Q32.41875 118.01743 32.590626 117.93931Q32.73125 117.81431 32.778126 117.59556Q32.840626 117.31431 32.840626 115.62681Q32.840626 113.95493 32.73125 113.47056Q32.559376 113.36118 32.29375 113.29868Q32.2 113.28306 31.934376 113.22056L31.934376 112.95493Q32.3875 112.82993 32.66875 112.62681Q32.965626 112.40806 33.465626 111.76743L33.5125 111.76743Q33.559376 111.76743 33.66875 111.76743Q33.73125 111.76743 33.7625 111.79868L33.7625 112.68931Q33.7625 112.97056 33.778126 113.28306Q34.60625 112.51743 35.278126 112.22056Q35.73125 112.01743 36.29375 112.01743Q36.98125 112.01743 37.371876 112.28306Q37.778126 112.53306 38.1375 113.20493Q38.825 112.51743 39.3875 112.25181Q39.965626 111.97056 40.54375 111.97056Q41.41875 111.97056 41.98125 112.53306Q42.528126 113.11118 42.54375 114.23618L42.54375 114.87681L42.559376 115.59556L42.54375 117.42368Q42.54375 117.73618 42.684376 117.90806Q42.746876 117.92368 43.16875 118.04868Q43.41875 118.11118 43.465626 118.15806Q43.5125 118.18931 43.5125 118.26743Q43.5125 118.34556 43.465626 118.47056L43.41875 118.47056L42.621876 118.42368Q42.48125 118.40806 42.184376 118.40806Q41.809376 118.40806 41.1375 118.43931L40.73125 118.43931Q40.653126 118.43931 40.403126 118.45493Q40.3875 118.37681 40.3875 118.32993Q40.3875 118.26743 40.45 118.17368Q40.653126 118.07993 41.0125 118.01743Q41.3875 117.95493 41.48125 117.81431Q41.575 117.65806 41.575 116.59556Q41.575 114.28306 41.5125 113.92368Q41.41875 113.32993 41.0125 113.00181Q40.621876 112.67368 40.0125 112.67368Q39.54375 112.67368 39.090626 112.92368Q38.653126 113.15806 38.215626 113.65806L38.215626 113.84556L38.215626 115.03306L38.184376 115.97056Q38.184376 117.39243 38.2 117.59556Q38.23125 117.78306 38.340626 117.87681Q38.45 117.95493 38.95 118.03306Q39.184376 118.06431 39.309376 118.09556Q39.403126 118.17368 39.403126 118.29868Q39.403126 118.39243 39.325 118.43931L39.2 118.43931L38.809376 118.42368L36.528126 118.42368L35.903126 118.43931Q35.8875 118.31431 35.8875 118.26743L35.903126 118.17368Q36.075 118.07993 36.54375 117.98618Q36.778126 117.95493 37.04375 117.86118Q37.090626 117.81431 37.10625 117.75181Q37.153126 117.64243 37.16875 117.12681L37.2 116.22056L37.184376 115.20493L37.2 114.62681Q37.2 113.67368 36.809376 113.23618Q36.41875 112.78306 35.825 112.78306Q35.2625 112.78306 34.7 113.06431Q34.153126 113.32993 33.778126 113.79868Q33.778126 114.01743 33.778126 114.18931L33.809376 116.81431Q33.809376 117.67368 33.903126 117.79868Q33.996876 117.92368 34.309376 117.97056Q34.809376 118.03306 34.95 118.14243Q35.028126 118.18931 35.028126 118.28306Q35.028126 118.34556 35.0125 118.42368Q34.121876 118.36118 33.825 118.36118Q33.5125 118.36118 33.2625 118.37681L32.871876 118.39243L32.621876 118.39243L31.746876 118.42368Q31.73125 118.37681 31.73125 118.32993Q31.73125 118.29868 31.7625 118.17368ZM44.559376 108.84556Q44.559376 108.59556 44.7625 108.40806Q44.965626 108.22056 45.246876 108.22056Q45.528126 108.22056 45.746876 108.43931Q45.965626 108.64243 45.965626 108.87681Q45.965626 109.12681 45.746876 109.34556Q45.528126 109.54868 45.246876 109.54868Q44.95 109.54868 44.746876 109.36118Q44.559376 109.15806 44.559376 108.84556ZM43.903126 112.89243L43.91875 112.67368Q44.41875 112.51743 44.465626 112.50181Q44.746876 112.37681 45.04375 112.12681Q45.35625 111.86118 45.575 111.53306Q45.66875 111.51743 45.715626 111.51743L45.809376 111.53306Q45.840626 111.90806 45.840626 112.07993Q45.840626 112.11118 45.825 112.42368L45.825 112.84556L45.840626 115.09556L45.809376 117.47056Q45.809376 117.76743 45.903126 117.87681Q46.0125 117.98618 46.5125 118.12681Q46.825 118.22056 46.98125 118.28306Q46.996876 118.32993 46.996876 118.37681Q46.996876 118.42368 46.965626 118.50181Q46.653126 118.48618 46.184376 118.45493Q45.528126 118.39243 45.325 118.39243Q45.215626 118.39243 44.075 118.43931Q43.840626 118.43931 43.621876 118.48618Q43.575 118.48618 43.496876 118.45493Q43.45 118.39243 43.45 118.36118Q43.45 118.25181 43.60625 118.18931Q43.6375 118.17368 44.403126 118.00181Q44.653126 117.95493 44.73125 117.84556Q44.85625 117.68931 44.85625 117.32993Q44.871876 116.72056 44.871876 114.03306Q44.871876 113.48618 44.825 113.36118Q44.79375 113.26743 44.621876 113.14243Q44.45 113.01743 43.903126 112.89243ZM47.778126 118.48618L47.746876 118.37681Q47.746876 118.31431 47.809376 118.20493L48.278126 118.11118L48.91875 118.00181Q48.996876 117.95493 49.028126 117.89243Q49.075 117.78306 49.075 117.28306Q49.075 114.62681 49.04375 114.22056Q49.0125 113.81431 48.903126 113.70493Q48.79375 113.59556 48.340626 113.53306Q48.075 113.48618 47.91875 113.42368L47.95 113.18931Q48.778126 112.86118 49.059376 112.61118Q49.45 112.26743 49.715626 111.68931L49.98125 111.70493Q50.028126 112.09556 50.028126 113.43931L50.028126 113.56431Q50.028126 113.61118 50.04375 113.72056Q50.340626 113.17368 50.778126 112.72056L50.965626 112.54868Q51.075 112.42368 51.16875 112.34556Q51.715626 112.01743 51.98125 112.01743Q52.325 112.01743 52.54375 112.25181Q52.7625 112.48618 52.7625 112.81431Q52.7625 113.07993 52.60625 113.23618Q52.403126 113.42368 52.121876 113.42368Q51.996876 113.42368 51.621876 113.29868Q51.2625 113.15806 51.153126 113.15806Q50.934376 113.15806 50.840626 113.23618Q50.621876 113.40806 50.309376 113.93931Q50.075 114.32993 50.075 114.67368L50.10625 115.95493L50.121876 117.50181Q50.153126 117.76743 50.184376 117.84556Q50.215626 117.90806 50.340626 117.98618Q51.184376 118.04868 51.340626 118.07993Q51.45 118.09556 51.5125 118.09556Q51.840626 118.11118 51.98125 118.18931Q52.04375 118.23618 52.04375 118.31431Q52.04375 118.36118 51.98125 118.43931L51.121876 118.42368L50.79375 118.42368L50.309376 118.42368L49.5125 118.42368L49.090626 118.45493L47.778126 118.48618ZM56.79375 118.20493Q56.965626 118.12681 57.1375 118.11118Q58.340626 118.03306 58.5125 117.82993Q58.684376 117.62681 58.684376 115.82993L58.66875 115.00181L58.66875 114.14243L58.6375 113.20493L58.653126 112.64243L58.653126 112.03306L58.653126 111.31431L58.6375 111.00181L58.653126 110.59556Q58.653126 110.45493 58.653126 110.26743Q58.653126 109.76743 58.60625 109.22056Q58.575 109.11118 58.528126 109.01743Q58.23125 108.86118 57.590626 108.81431Q56.95 108.76743 56.85625 108.70493Q56.79375 108.65806 56.79375 108.45493L57.45 108.45493L59.5125 108.50181Q60.309376 108.50181 61.6375 108.45493Q61.6375 108.57993 61.621876 108.68931Q61.465626 108.73618 61.10625 108.78306Q60.35625 108.86118 60.2 108.93931Q60.090626 108.98618 60.04375 109.07993Q59.965626 109.22056 59.95 109.59556L59.91875 110.61118L59.95 114.07993L59.95 115.45493Q59.934376 116.11118 59.934376 116.34556Q59.934376 117.22056 59.965626 117.47056Q60.0125 117.70493 60.121876 117.81431Q60.23125 117.90806 60.465626 117.97056Q60.825 118.06431 61.028126 118.06431Q61.465626 118.07993 61.590626 118.18931Q61.60625 118.29868 61.60625 118.36118L61.60625 118.42368Q60.903126 118.45493 60.559376 118.45493Q60.371876 118.45493 59.871876 118.42368L58.79375 118.43931L56.95 118.43931L56.809376 118.43931L56.79375 118.20493ZM62.590626 116.47056Q62.871876 117.20493 63.028126 117.42368Q63.325 117.87681 63.73125 118.12681Q64.15312 118.36118 64.6375 118.36118Q65.075 118.36118 65.5125 117.98618Q65.825 117.68931 65.825 117.31431Q65.825 116.79868 65.46562 116.37681Q65.09062 115.95493 64.05937 115.56431Q63.04375 115.17368 62.684376 114.73618Q62.340626 114.29868 62.340626 113.73618Q62.340626 113.20493 62.621876 112.79868Q62.91875 112.39243 63.41875 112.18931Q63.934376 111.98618 64.35625 111.98618Q64.91875 111.98618 65.35625 112.07993Q65.79375 112.15806 66.12187 112.32993Q66.18437 112.73618 66.21562 113.50181L66.23125 113.75181Q66.1375 113.76743 66.05937 113.76743L65.95 113.76743Q65.71562 113.11118 65.23125 112.73618Q64.7625 112.36118 64.29375 112.36118Q63.825 112.36118 63.528126 112.64243Q63.246876 112.92368 63.246876 113.39243Q63.246876 113.73618 63.48125 114.01743Q63.715626 114.28306 64.575 114.64243Q65.43437 114.98618 65.825 115.29868Q66.23125 115.59556 66.41875 116.03306Q66.60625 116.45493 66.60625 116.84556Q66.60625 117.37681 66.24687 117.84556Q65.8875 118.31431 65.35625 118.50181Q64.825 118.70493 64.40312 118.70493Q63.403126 118.70493 62.575 118.32993Q62.496876 118.26743 62.48125 118.09556Q62.48125 118.03306 62.465626 117.87681Q62.340626 116.81431 62.340626 116.62681Q62.340626 116.53306 62.371876 116.50181Q62.41875 116.47056 62.590626 116.47056ZM67.7625 118.17368Q67.8875 118.09556 68.10625 118.06431Q68.41875 118.01743 68.59062 117.93931Q68.73125 117.81431 68.77812 117.59556Q68.84062 117.31431 68.84062 115.62681Q68.84062 113.95493 68.73125 113.47056Q68.55937 113.36118 68.29375 113.29868Q68.2 113.28306 67.93437 113.22056L67.93437 112.95493Q68.3875 112.82993 68.66875 112.62681Q68.96562 112.40806 69.46562 111.76743L69.5125 111.76743Q69.55937 111.76743 69.66875 111.76743Q69.73125 111.76743 69.7625 111.79868L69.7625 112.68931Q69.7625 112.97056 69.77812 113.28306Q70.60625 112.51743 71.27812 112.22056Q71.73125 112.01743 72.29375 112.01743Q72.98125 112.01743 73.37187 112.28306Q73.77812 112.53306 74.1375 113.20493Q74.825 112.51743 75.3875 112.25181Q75.96562 111.97056 76.54375 111.97056Q77.41875 111.97056 77.98125 112.53306Q78.52812 113.11118 78.54375 114.23618L78.54375 114.87681L78.55937 115.59556L78.54375 117.42368Q78.54375 117.73618 78.68437 117.90806Q78.74687 117.92368 79.16875 118.04868Q79.41875 118.11118 79.46562 118.15806Q79.5125 118.18931 79.5125 118.26743Q79.5125 118.34556 79.46562 118.47056L79.41875 118.47056L78.62187 118.42368Q78.48125 118.40806 78.18437 118.40806Q77.80937 118.40806 77.1375 118.43931L76.73125 118.43931Q76.65312 118.43931 76.40312 118.45493Q76.3875 118.37681 76.3875 118.32993Q76.3875 118.26743 76.45 118.17368Q76.65312 118.07993 77.0125 118.01743Q77.3875 117.95493 77.48125 117.81431Q77.575 117.65806 77.575 116.59556Q77.575 114.28306 77.5125 113.92368Q77.41875 113.32993 77.0125 113.00181Q76.62187 112.67368 76.0125 112.67368Q75.54375 112.67368 75.09062 112.92368Q74.65312 113.15806 74.21562 113.65806L74.21562 113.84556L74.21562 115.03306L74.18437 115.97056Q74.18437 117.39243 74.2 117.59556Q74.23125 117.78306 74.34062 117.87681Q74.45 117.95493 74.95 118.03306Q75.18437 118.06431 75.30937 118.09556Q75.40312 118.17368 75.40312 118.29868Q75.40312 118.39243 75.325 118.43931L75.2 118.43931L74.80937 118.42368L72.52812 118.42368L71.90312 118.43931Q71.8875 118.31431 71.8875 118.26743L71.90312 118.17368Q72.075 118.07993 72.54375 117.98618Q72.77812 117.95493 73.04375 117.86118Q73.09062 117.81431 73.10625 117.75181Q73.15312 117.64243 73.16875 117.12681L73.2 116.22056L73.18437 115.20493L73.2 114.62681Q73.2 113.67368 72.80937 113.23618Q72.41875 112.78306 71.825 112.78306Q71.2625 112.78306 70.7 113.06431Q70.15312 113.32993 69.77812 113.79868Q69.77812 114.01743 69.77812 114.18931L69.80937 116.81431Q69.80937 117.67368 69.90312 117.79868Q69.99687 117.92368 70.30937 117.97056Q70.80937 118.03306 70.95 118.14243Q71.02812 118.18931 71.02812 118.28306Q71.02812 118.34556 71.0125 118.42368Q70.12187 118.36118 69.825 118.36118Q69.5125 118.36118 69.2625 118.37681L68.87187 118.39243L68.62187 118.39243L67.74687 118.42368Q67.73125 118.37681 67.73125 118.32993Q67.73125 118.29868 67.7625 118.17368ZM85.80937 117.39243Q85.85625 117.48618 85.85625 117.53306Q85.85625 117.65806 85.66875 117.95493Q85.41875 118.34556 85.12187 118.53306Q84.93437 118.64243 84.60625 118.64243Q84.04375 118.64243 83.7625 118.29868Q83.59062 118.09556 83.52812 117.56431L82.65312 118.17368Q82.18437 118.43931 81.95 118.51743Q81.55937 118.62681 81.0125 118.62681Q80.60625 118.62681 80.37187 118.39243Q80.15312 118.14243 80.15312 117.76743Q80.15312 117.22056 80.80937 116.47056Q81.46562 115.72056 82.60625 115.25181Q83.40312 114.90806 83.575 114.81431Q83.59062 114.56431 83.59062 114.25181Q83.59062 113.26743 83.30937 112.92368Q83.04375 112.56431 82.52812 112.56431Q81.98125 112.56431 81.5125 112.98618Q81.23125 113.25181 81.075 113.98618Q81.02812 114.18931 80.90312 114.42368Q80.55937 114.64243 80.35625 114.64243Q80.18437 114.64243 80.04375 114.53306Q79.96562 114.48618 79.96562 114.40806Q79.96562 114.20493 80.40312 113.50181Q80.84062 112.78306 81.49687 112.42368Q82.15312 112.06431 82.65312 112.06431Q83.325 112.06431 83.65312 112.18931Q83.98125 112.31431 84.23125 112.62681Q84.48125 112.92368 84.52812 113.28306Q84.55937 113.45493 84.55937 114.50181L84.54375 115.75181L84.54375 116.65806Q84.54375 116.82993 84.54375 116.95493Q84.52812 117.18931 84.52812 117.29868Q84.52812 117.54868 84.68437 117.70493Q84.825 117.86118 85.02812 117.86118Q85.325 117.86118 85.54375 117.56431L85.6375 117.43931Q85.66875 117.42368 85.80937 117.39243ZM83.5125 117.15806Q83.55937 116.17368 83.55937 115.76743Q83.55937 115.54868 83.54375 115.18931Q83.0125 115.37681 82.41875 115.76743Q81.84062 116.14243 81.49687 116.64243Q81.24687 117.00181 81.24687 117.32993Q81.24687 117.62681 81.45 117.82993Q81.66875 118.03306 81.98125 118.03306Q82.21562 118.03306 82.55937 117.86118Q83.0125 117.64243 83.5125 117.15806ZM87.55937 108.84556Q87.55937 108.59556 87.7625 108.40806Q87.96562 108.22056 88.24687 108.22056Q88.52812 108.22056 88.74687 108.43931Q88.96562 108.64243 88.96562 108.87681Q88.96562 109.12681 88.74687 109.34556Q88.52812 109.54868 88.24687 109.54868Q87.95 109.54868 87.74687 109.36118Q87.55937 109.15806 87.55937 108.84556ZM86.90312 112.89243L86.91875 112.67368Q87.41875 112.51743 87.46562 112.50181Q87.74687 112.37681 88.04375 112.12681Q88.35625 111.86118 88.575 111.53306Q88.66875 111.51743 88.71562 111.51743L88.80937 111.53306Q88.84062 111.90806 88.84062 112.07993Q88.84062 112.11118 88.825 112.42368L88.825 112.84556L88.84062 115.09556L88.80937 117.47056Q88.80937 117.76743 88.90312 117.87681Q89.0125 117.98618 89.5125 118.12681Q89.825 118.22056 89.98125 118.28306Q89.99687 118.32993 89.99687 118.37681Q89.99687 118.42368 89.96562 118.50181Q89.65312 118.48618 89.18437 118.45493Q88.52812 118.39243 88.325 118.39243Q88.21562 118.39243 87.075 118.43931Q86.84062 118.43931 86.62187 118.48618Q86.575 118.48618 86.49687 118.45493Q86.45 118.39243 86.45 118.36118Q86.45 118.25181 86.60625 118.18931Q86.6375 118.17368 87.40312 118.00181Q87.65312 117.95493 87.73125 117.84556Q87.85625 117.68931 87.85625 117.32993Q87.87187 116.72056 87.87187 114.03306Q87.87187 113.48618 87.825 113.36118Q87.79375 113.26743 87.62187 113.14243Q87.45 113.01743 86.90312 112.89243ZM90.85625 108.76743L90.85625 108.59556Q91.075 108.53306 91.34062 108.45493Q91.73125 108.32993 92.49687 108.06431L92.87187 108.06431Q92.87187 108.43931 92.87187 108.50181Q92.87187 114.90806 92.84062 116.14243Q92.80937 116.87681 92.80937 116.92368Q92.80937 117.79868 92.8875 117.89243Q92.98125 118.03306 93.45 118.09556Q93.93437 118.14243 94.02812 118.20493Q94.09062 118.23618 94.09062 118.31431Q94.09062 118.39243 94.04375 118.43931Q94.0125 118.47056 93.91875 118.47056Q93.87187 118.47056 93.10625 118.43931L92.075 118.40806L90.7625 118.47056Q90.6375 118.48618 90.575 118.42368Q90.52812 118.37681 90.52812 118.31431Q90.52812 118.23618 90.575 118.20493Q90.6375 118.15806 91.1375 118.07993Q91.65312 117.98618 91.73125 117.93931Q91.80937 117.87681 91.825 117.67368Q91.85625 117.39243 91.85625 116.07993L91.85625 114.28306L91.87187 112.42368L91.87187 110.56431L91.8875 109.65806Q91.8875 109.37681 91.79375 109.26743Q91.71562 109.14243 91.43437 109.01743Q91.0125 108.84556 90.85625 108.76743Z" fill-rule="nonzero"/><path fill="#9e9e9e" d="M27.278126 140.43932Q26.10625 140.39244 24.1375 140.39244L22.434376 140.43932L21.684376 140.40807L21.075 140.43932Q20.98125 140.42369 20.809376 140.39244Q20.95 140.06432 21.16875 139.79869Q21.809376 139.00182 23.059376 137.73619Q24.809376 135.98619 25.35625 134.98619Q25.91875 133.97057 25.91875 133.09557Q25.91875 132.26744 25.35625 131.70494Q24.79375 131.14244 23.98125 131.14244Q23.48125 131.14244 23.0125 131.37682Q22.559376 131.59557 22.278126 131.95494Q22.10625 132.17369 21.809376 132.86119Q21.6375 133.23619 21.60625 133.26744Q21.559376 133.31432 21.496876 133.31432Q21.434376 133.31432 21.371876 133.25182Q21.325 133.18932 21.325 133.07994Q21.325 132.73619 21.66875 131.97057Q22.028126 131.18932 22.715626 130.75182Q23.41875 130.31432 24.325 130.31432Q25.528126 130.31432 26.325 131.09557Q27.121876 131.86119 27.121876 132.93932Q27.121876 133.79869 26.575 134.67369Q26.028126 135.54869 24.059376 137.36119Q23.41875 137.95494 23.1375 138.23619Q22.871876 138.51744 22.04375 139.45494Q23.23125 139.50182 24.215626 139.50182Q24.41875 139.50182 24.66875 139.48619Q25.1375 139.47057 25.215626 139.47057L26.29375 139.50182Q26.48125 139.50182 26.66875 139.32994Q26.85625 139.15807 27.16875 138.36119L27.35625 138.34557Q27.403126 138.34557 27.48125 138.36119Q27.5125 138.43932 27.5125 138.47057L27.496876 138.53307Q27.434376 138.76744 27.3875 139.36119Q27.35625 139.72057 27.278126 140.43932ZM34.121876 140.43932L30.54375 140.43932Q30.54375 140.36119 30.54375 140.31432Q30.54375 140.18932 30.590626 140.14244Q30.653126 140.07994 30.934376 140.03307Q31.3875 139.93932 31.66875 139.79869Q31.746876 139.62682 31.746876 139.48619L31.746876 139.00182Q31.746876 138.90807 31.778126 138.20494Q31.778126 137.93932 31.79375 135.90807L31.809376 134.07994L31.79375 133.00182Q31.79375 132.76744 31.809376 131.53307Q30.028126 132.79869 29.85625 132.79869Q29.79375 132.79869 29.715626 132.73619Q29.653126 132.65807 29.653126 132.59557Q29.653126 132.51744 29.715626 132.47057Q29.825 132.37682 30.23125 132.14244Q30.29375 132.11119 30.778126 131.72057Q31.528126 131.07994 31.871876 130.72057Q32.23125 130.36119 32.309376 130.31432Q32.465626 130.31432 32.559376 130.31432Q32.7625 130.31432 32.809376 130.37682Q32.85625 130.43932 32.85625 130.86119L32.809376 137.81432L32.809376 138.50182Q32.809376 138.75182 32.79375 139.01744Q32.79375 139.26744 32.79375 139.37682Q32.79375 139.65807 32.85625 139.75182Q32.903126 139.79869 33.153126 139.89244L33.684376 140.00182Q34.028126 140.07994 34.059376 140.11119Q34.1375 140.18932 34.1375 140.32994L34.121876 140.43932ZM37.10625 143.23619L37.121876 143.00182Q37.215626 142.95494 37.309376 142.90807Q38.121876 142.51744 38.403126 142.09557Q38.684376 141.68932 38.684376 141.36119Q38.684376 141.14244 38.528126 140.97057Q38.371876 140.81432 37.98125 140.72057Q37.60625 140.64244 37.496876 140.59557Q37.41875 140.56432 37.29375 140.43932Q37.215626 140.26744 37.215626 140.12682Q37.215626 139.75182 37.371876 139.62682Q37.684376 139.34557 38.0125 139.34557Q38.60625 139.34557 39.04375 139.81432Q39.48125 140.26744 39.48125 140.95494Q39.48125 141.43932 39.16875 141.98619Q38.85625 142.54869 38.215626 142.89244Q37.590626 143.23619 37.10625 143.23619ZM45.7 130.26744L46.059376 130.26744Q46.04375 130.50182 46.04375 130.54869L46.075 131.70494L46.028126 132.73619L46.059376 133.87682L46.059376 134.78307L46.075 136.01744Q46.075 136.31432 46.059376 136.89244L46.215626 136.90807L46.778126 136.90807L47.309376 136.90807L47.746876 136.89244Q47.7625 137.14244 47.7625 137.25182Q47.7625 137.37682 47.746876 137.61119Q47.2625 137.64244 47.215626 137.64244L46.825 137.62682L46.5125 137.62682Q46.3875 137.62682 46.059376 137.61119Q46.04375 138.72057 46.059376 140.56432Q46.0125 140.61119 45.95 140.62682L45.465626 140.64244Q45.309376 140.64244 44.996876 140.62682Q45.0125 139.70494 45.0125 139.29869Q45.0125 138.95494 44.996876 138.65807Q44.98125 138.12682 44.98125 138.04869Q44.98125 137.90807 44.996876 137.61119Q44.66875 137.65807 44.48125 137.65807Q44.3875 137.65807 44.278126 137.64244Q43.48125 137.61119 43.3875 137.61119Q43.278126 137.61119 42.8875 137.65807L42.075 137.61119L41.6375 137.64244L41.340626 137.59557L40.965626 137.67369L40.903126 137.61119Q40.8875 137.43932 40.8875 137.36119Q40.8875 137.26744 40.903126 137.09557Q41.121876 136.81432 41.7 135.92369L43.23125 133.72057Q43.79375 132.87682 44.16875 132.39244Q44.559376 131.89244 44.934376 131.32994Q45.309376 130.76744 45.7 130.26744ZM44.996876 136.89244L44.996876 135.61119L44.996876 134.59557L44.996876 131.98619Q44.35625 132.82994 43.215626 134.53307Q41.903126 136.48619 41.66875 136.89244Q42.0125 136.87682 42.184376 136.87682L44.325 136.90807Q44.559376 136.90807 44.996876 136.89244ZM51.325 140.98619Q51.3875 140.82994 51.48125 140.68932Q51.575 140.54869 51.73125 140.29869Q51.778126 140.20494 52.309376 139.42369Q52.840626 138.62682 53.028126 138.29869Q56.528126 132.37682 58.090626 130.26744L58.16875 130.25182Q58.528126 130.28307 58.575 130.28307L55.16875 135.62682L53.60625 138.20494L51.809376 140.97057L51.7625 140.97057Q51.715626 140.97057 51.3875 140.98619L51.325 140.98619ZM53.0125 133.00182Q53.0125 134.23619 52.3875 134.97057Q51.778126 135.68932 51.0125 135.68932Q50.23125 135.68932 49.621876 135.00182Q49.028126 134.29869 49.028126 133.07994Q49.028126 132.23619 49.340626 131.50182Q49.575 130.95494 50.04375 130.61119Q50.5125 130.26744 51.04375 130.26744Q51.590626 130.26744 52.075 130.62682Q52.559376 130.98619 52.840626 131.68932Q53.0125 132.17369 53.0125 133.00182ZM52.1375 133.14244Q52.1375 131.98619 52.075 131.64244Q51.965626 131.04869 51.7 130.79869Q51.434376 130.54869 51.04375 130.54869Q50.528126 130.54869 50.23125 131.00182Q49.934376 131.43932 49.934376 133.17369Q49.934376 134.54869 50.23125 134.98619Q50.54375 135.42369 50.996876 135.42369Q51.528126 135.42369 51.79375 135.04869Q52.1375 134.54869 52.1375 133.14244ZM61.090626 137.87682Q61.090626 139.11119 60.465626 139.84557Q59.840626 140.57994 59.075 140.57994Q58.29375 140.57994 57.684376 139.87682Q57.090626 139.17369 57.090626 137.95494Q57.090626 137.11119 57.403126 136.37682Q57.6375 135.82994 58.10625 135.48619Q58.575 135.14244 59.10625 135.14244Q59.653126 135.14244 60.1375 135.50182Q60.621876 135.86119 60.903126 136.57994Q61.090626 137.04869 61.090626 137.87682ZM60.215626 138.01744Q60.215626 136.87682 60.1375 136.51744Q60.028126 135.92369 59.7625 135.67369Q59.496876 135.42369 59.10625 135.42369Q58.590626 135.42369 58.29375 135.87682Q57.996876 136.31432 57.996876 138.04869Q57.996876 139.42369 58.29375 139.86119Q58.60625 140.29869 59.075 140.29869Q59.590626 140.29869 59.85625 139.92369Q60.215626 139.43932 60.215626 138.01744Z" fill-rule="nonzero"/><path stroke="#757575" stroke-width="1.0" stroke-linecap="butt" d="M20.45 124.95493L158.76666 124.95493L232.23996 124.95493" fill-rule="nonzero"/><path fill="#9e9e9e" d="M234.23996 124.95493C234.23996 123.850365 233.34453 122.95493 232.23996 122.95493C231.13539 122.95493 230.23996 123.850365 230.23996 124.95493C230.23996 126.0595 231.13539 126.95493 232.23996 126.95493C233.34453 126.95493 234.23996 126.0595 234.23996 124.95493" fill-rule="nonzero"/><path fill="#000000" d="M517.65936 290.2059Q517.90936 290.04965 518.53436 289.97153Q519.03436 289.9559 519.1281 289.8934Q519.1906 289.84653 519.22186 289.7684Q519.33124 289.48715 519.39374 288.2059Q519.45624 286.53403 519.6125 283.7684Q519.7375 281.65903 519.7375 281.1434L519.7375 280.94028Q519.175 280.81528 517.95624 280.69028Q517.8781 280.56528 517.8781 280.50278Q517.8781 280.47153 517.9406 280.36215Q518.0656 280.31528 518.14374 280.31528Q518.20624 280.31528 518.40936 280.34653Q518.8 280.40903 519.47186 280.40903Q519.6906 280.40903 520.22186 280.37778Q520.59686 280.34653 520.64374 280.34653Q520.76874 280.34653 520.925 280.3934Q521.0031 280.47153 521.05 280.53403L521.3781 281.2684L523.58124 286.15903L524.5031 288.22153Q525.58124 286.06528 526.1906 284.3934Q526.22186 284.2684 526.28436 284.17465Q526.34686 284.03403 526.40936 283.87778Q526.47186 283.7059 526.925 282.62778Q527.09686 282.19028 527.20624 281.87778Q527.65936 280.62778 527.7375 280.44028Q527.8781 280.3934 527.9875 280.3934Q528.1125 280.3934 528.3156 280.40903Q528.7531 280.42465 529.7375 280.42465Q530.34686 280.42465 530.7375 280.40903Q530.7531 280.50278 530.7531 280.53403Q530.7531 280.59653 530.72186 280.69028Q530.47186 280.81528 530.1281 280.8309Q529.425 280.87778 529.2375 280.9559Q529.05 281.0184 529.0031 281.12778Q528.95624 281.23715 528.90936 281.84653L528.925 282.2059L528.90936 282.5809Q528.90936 283.75278 528.97186 286.5184L528.97186 288.04965L528.97186 289.03403Q528.97186 289.61215 529.01874 289.72153Q529.08124 289.81528 529.34686 289.90903Q529.76874 290.04965 530.72186 290.2059Q530.76874 290.23715 530.76874 290.29965Q530.76874 290.37778 530.76874 290.47153L530.40936 290.47153Q529.9406 290.47153 529.39374 290.44028Q528.8625 290.40903 528.83124 290.40903Q527.22186 290.40903 526.70624 290.44028Q526.3781 290.47153 526.3 290.47153Q526.2375 290.47153 526.175 290.44028L526.175 290.3309Q526.175 290.25278 526.20624 290.17465Q526.45624 290.06528 526.90936 290.03403Q527.39374 289.8934 527.6281 289.75278Q527.6906 289.4559 527.6906 288.53403L527.675 286.9559Q527.675 286.7059 527.6906 286.00278Q527.72186 285.29965 527.72186 283.7059Q527.72186 282.4559 527.65936 281.79965Q527.53436 282.0809 527.14374 282.98715L527.01874 283.28403L527.0031 283.3309L525.84686 286.06528L525.4406 287.12778L524.89374 288.40903Q524.55 289.28403 524.3 289.97153Q524.1906 290.28403 524.1125 290.47153L523.9406 290.4559Q523.05 287.87778 521.83124 285.17465Q520.6125 282.4559 520.1125 281.5809Q520.05 281.92465 519.97186 283.53403Q519.8781 285.50278 519.8781 287.87778Q519.8781 288.61215 519.9875 289.54965Q520.01874 289.81528 520.20624 289.94028Q520.40936 290.06528 521.22186 290.0809Q521.53436 290.0809 521.8156 290.12778Q521.8625 290.25278 521.8625 290.29965Q521.8625 290.34653 521.83124 290.44028L519.39374 290.34653Q519.1281 290.34653 518.5656 290.3934Q518.2531 290.42465 517.675 290.42465L517.65936 290.2059ZM531.1281 287.25278Q531.1281 286.72153 531.34686 286.11215Q531.5656 285.50278 532.01874 285.03403Q532.47186 284.54965 532.9875 284.31528Q533.6906 283.98715 534.72186 283.98715Q536.175 283.98715 537.15936 284.98715Q538.14374 285.98715 538.14374 287.3934Q538.14374 288.6434 537.1125 289.62778Q536.08124 290.61215 534.51874 290.61215Q533.55 290.61215 532.6906 290.09653Q532.05 289.7059 531.58124 288.9559Q531.1281 288.2059 531.1281 287.25278ZM534.58124 290.29965Q535.175 290.29965 535.72186 289.98715Q536.26874 289.65903 536.59686 288.9559Q536.925 288.23715 536.925 287.31528Q536.925 286.7059 536.675 285.90903Q536.425 285.09653 535.89374 284.69028Q535.3625 284.28403 534.65936 284.28403Q534.14374 284.28403 533.59686 284.53403Q533.0656 284.7684 532.6906 285.4559Q532.33124 286.1434 532.33124 287.40903Q532.33124 288.8309 532.97186 289.56528Q533.6125 290.29965 534.58124 290.29965ZM539.65936 280.78403Q539.65936 280.53403 539.8625 280.34653Q540.0656 280.15903 540.34686 280.15903Q540.6281 280.15903 540.84686 280.37778Q541.0656 280.5809 541.0656 280.81528Q541.0656 281.06528 540.84686 281.28403Q540.6281 281.48715 540.34686 281.48715Q540.05 281.48715 539.84686 281.29965Q539.65936 281.09653 539.65936 280.78403ZM539.0031 284.8309L539.01874 284.61215Q539.51874 284.4559 539.5656 284.44028Q539.84686 284.31528 540.14374 284.06528Q540.45624 283.79965 540.675 283.47153Q540.76874 283.4559 540.8156 283.4559L540.90936 283.47153Q540.9406 283.84653 540.9406 284.0184Q540.9406 284.04965 540.925 284.36215L540.925 284.78403L540.9406 287.03403L540.90936 289.40903Q540.90936 289.7059 541.0031 289.81528Q541.1125 289.92465 541.6125 290.06528Q541.925 290.15903 542.08124 290.22153Q542.09686 290.2684 542.09686 290.31528Q542.09686 290.36215 542.0656 290.44028Q541.7531 290.42465 541.28436 290.3934Q540.6281 290.3309 540.425 290.3309Q540.3156 290.3309 539.175 290.37778Q538.9406 290.37778 538.72186 290.42465Q538.675 290.42465 538.59686 290.3934Q538.55 290.3309 538.55 290.29965Q538.55 290.19028 538.70624 290.12778Q538.7375 290.11215 539.5031 289.94028Q539.7531 289.8934 539.83124 289.78403Q539.95624 289.62778 539.95624 289.2684Q539.97186 288.65903 539.97186 285.97153Q539.97186 285.42465 539.925 285.29965Q539.89374 285.2059 539.72186 285.0809Q539.55 284.9559 539.0031 284.8309ZM543.6906 288.40903Q543.97186 289.1434 544.1281 289.36215Q544.425 289.81528 544.83124 290.06528Q545.2531 290.29965 545.7375 290.29965Q546.175 290.29965 546.6125 289.92465Q546.925 289.62778 546.925 289.25278Q546.925 288.73715 546.5656 288.31528Q546.1906 287.8934 545.15936 287.50278Q544.14374 287.11215 543.78436 286.67465Q543.4406 286.23715 543.4406 285.67465Q543.4406 285.1434 543.72186 284.73715Q544.01874 284.3309 544.51874 284.12778Q545.03436 283.92465 545.45624 283.92465Q546.01874 283.92465 546.45624 284.0184Q546.89374 284.09653 547.22186 284.2684Q547.28436 284.67465 547.3156 285.44028L547.33124 285.69028Q547.2375 285.7059 547.15936 285.7059L547.05 285.7059Q546.8156 285.04965 546.33124 284.67465Q545.8625 284.29965 545.39374 284.29965Q544.925 284.29965 544.6281 284.5809Q544.34686 284.86215 544.34686 285.3309Q544.34686 285.67465 544.58124 285.9559Q544.8156 286.22153 545.675 286.5809Q546.53436 286.92465 546.925 287.23715Q547.33124 287.53403 547.51874 287.97153Q547.70624 288.3934 547.70624 288.78403Q547.70624 289.31528 547.34686 289.78403Q546.9875 290.25278 546.45624 290.44028Q545.925 290.6434 545.5031 290.6434Q544.5031 290.6434 543.675 290.2684Q543.59686 290.2059 543.58124 290.03403Q543.58124 289.97153 543.5656 289.81528Q543.4406 288.75278 543.4406 288.56528Q543.4406 288.47153 543.47186 288.44028Q543.51874 288.40903 543.6906 288.40903ZM554.7375 286.2684L551.6125 286.28403L551.01874 286.28403Q550.65936 286.28403 550.28436 286.31528Q550.20624 286.54965 550.20624 286.6434L550.22186 286.72153L550.22186 286.79965L550.20624 287.17465Q550.20624 287.65903 550.5031 288.34653Q550.8156 289.03403 551.3625 289.40903Q551.925 289.7684 552.76874 289.78403Q553.20624 289.7684 553.47186 289.69028Q553.7375 289.59653 554.22186 289.28403L554.78436 288.81528L554.83124 289.12778Q554.83124 289.19028 554.83124 289.25278Q554.47186 289.69028 553.925 290.03403Q553.39374 290.36215 552.84686 290.53403Q552.58124 290.59653 551.97186 290.59653Q551.40936 290.59653 550.8781 290.36215Q550.08124 290.0184 549.6125 289.2684Q549.15936 288.50278 549.15936 287.40903Q549.15936 287.06528 549.28436 286.53403Q549.425 285.98715 549.7531 285.37778Q549.9875 284.97153 550.3156 284.7059Q550.78436 284.3309 551.1281 284.17465Q551.64374 283.97153 552.3156 283.97153Q553.03436 283.97153 553.5031 284.23715Q554.1281 284.5809 554.425 285.1434Q554.7375 285.69028 554.7375 286.15903L554.7375 286.2684ZM550.3781 285.98715L550.7531 285.98715Q551.14374 285.98715 553.1281 285.86215Q553.4406 285.84653 553.5031 285.79965Q553.64374 285.6434 553.64374 285.53403Q553.64374 285.28403 553.4875 284.98715Q553.33124 284.67465 553.0031 284.50278Q552.6906 284.3309 552.2531 284.3309Q551.34686 284.3309 550.8 285.0184Q550.3781 285.53403 550.3781 285.98715ZM559.83124 281.56528L560.15936 280.37778Q560.1906 280.1434 560.2375 280.0809Q560.3 280.0184 560.3625 280.0184Q560.5031 280.0184 560.6906 280.34653Q560.8156 280.59653 560.89374 280.65903Q560.9875 280.72153 561.15936 280.75278L561.2375 280.73715L561.5656 280.7684L563.40936 280.79965L565.59686 280.78403L566.2375 280.78403L567.4406 280.7684Q567.51874 280.7684 567.64374 280.78403Q568.175 280.8309 568.3 280.8309Q568.40936 280.8309 568.4875 280.75278Q568.5031 280.72153 568.7375 280.22153Q568.84686 279.98715 568.9875 279.98715Q569.05 279.98715 569.14374 280.0184Q569.1906 280.17465 569.1906 280.29965L569.175 280.61215L569.1906 281.28403Q569.1906 281.5184 569.14374 282.84653Q569.14374 282.92465 569.1125 283.00278Q569.03436 283.04965 568.97186 283.04965Q568.90936 283.04965 568.8625 283.00278Q568.8156 282.94028 568.7375 282.62778Q568.58124 281.92465 568.34686 281.62778Q568.1906 281.42465 567.89374 281.34653Q567.6125 281.25278 566.5031 281.25278Q565.6125 281.25278 565.175 281.28403Q565.15936 281.59653 565.15936 281.86215L565.22186 286.7059Q565.22186 287.00278 565.1906 287.79965L565.20624 288.84653L565.1906 289.42465Q565.1906 289.69028 565.28436 289.81528Q565.3781 289.92465 565.8 290.03403Q566.51874 290.22153 566.7531 290.25278Q566.90936 290.2684 567.0031 290.31528L567.0031 290.56528L565.89374 290.53403Q564.97186 290.5184 564.51874 290.48715L563.3781 290.54965L562.53436 290.59653Q562.1906 290.59653 562.1125 290.5809L562.0031 290.53403Q562.01874 290.34653 562.0656 290.29965Q562.1281 290.23715 562.3625 290.2059Q562.6906 290.15903 563.1281 290.04965Q563.58124 289.92465 563.72186 289.79965Q563.8 289.72153 563.83124 289.56528Q563.89374 289.22153 563.89374 288.2059L563.89374 286.87778L563.8625 283.98715L563.83124 283.36215L563.83124 281.2684Q563.33124 281.22153 562.5656 281.22153Q561.4406 281.22153 561.20624 281.36215Q560.8156 281.5809 560.0656 282.6434Q559.8156 283.03403 559.6281 283.03403L559.55 283.0184Q559.51874 282.97153 559.51874 282.94028Q559.51874 282.84653 559.64374 282.37778Q559.8 281.7684 559.83124 281.56528ZM570.6906 288.40903Q570.97186 289.1434 571.1281 289.36215Q571.425 289.81528 571.83124 290.06528Q572.2531 290.29965 572.7375 290.29965Q573.175 290.29965 573.6125 289.92465Q573.925 289.62778 573.925 289.25278Q573.925 288.73715 573.5656 288.31528Q573.1906 287.8934 572.15936 287.50278Q571.14374 287.11215 570.78436 286.67465Q570.4406 286.23715 570.4406 285.67465Q570.4406 285.1434 570.72186 284.73715Q571.01874 284.3309 571.51874 284.12778Q572.03436 283.92465 572.45624 283.92465Q573.01874 283.92465 573.45624 284.0184Q573.89374 284.09653 574.22186 284.2684Q574.28436 284.67465 574.3156 285.44028L574.33124 285.69028Q574.2375 285.7059 574.15936 285.7059L574.05 285.7059Q573.8156 285.04965 573.33124 284.67465Q572.8625 284.29965 572.39374 284.29965Q571.925 284.29965 571.6281 284.5809Q571.34686 284.86215 571.34686 285.3309Q571.34686 285.67465 571.58124 285.9559Q571.8156 286.22153 572.675 286.5809Q573.53436 286.92465 573.925 287.23715Q574.33124 287.53403 574.51874 287.97153Q574.70624 288.3934 574.70624 288.78403Q574.70624 289.31528 574.34686 289.78403Q573.9875 290.25278 573.45624 290.44028Q572.925 290.6434 572.5031 290.6434Q571.5031 290.6434 570.675 290.2684Q570.59686 290.2059 570.58124 290.03403Q570.58124 289.97153 570.5656 289.81528Q570.4406 288.75278 570.4406 288.56528Q570.4406 288.47153 570.47186 288.44028Q570.51874 288.40903 570.6906 288.40903ZM575.84686 290.2059Q576.76874 290.03403 576.90936 289.9559Q576.9875 289.8934 576.9875 289.7059L576.9875 289.19028L576.9875 288.2684L576.97186 285.94028L576.9875 285.0809L576.9875 284.4559L577.0031 283.7059Q577.0031 281.92465 576.97186 281.5809Q576.9406 281.22153 576.83124 281.1434Q576.64374 280.9559 575.8 280.7684L575.8 280.72153Q575.8 280.67465 575.8156 280.56528Q575.925 280.54965 576.01874 280.53403Q576.1281 280.50278 576.22186 280.50278Q577.15936 280.23715 577.58124 279.98715L577.95624 279.98715Q577.97186 280.2059 577.97186 281.36215L577.97186 282.36215L577.97186 283.6434L577.9406 285.22153Q577.9406 285.36215 577.95624 285.53403Q578.45624 284.9559 578.675 284.7684Q579.08124 284.44028 579.53436 284.25278Q580.0031 284.06528 580.51874 284.06528Q581.47186 284.06528 582.08124 284.87778Q582.4406 285.34653 582.4406 286.22153L582.40936 287.0184L582.425 287.47153L582.39374 288.23715Q582.3625 289.2059 582.3625 289.37778Q582.3625 289.5809 582.3781 289.92465L582.8156 290.03403Q583.26874 290.12778 583.5031 290.2059L583.5031 290.4559L581.83124 290.40903Q581.6906 290.40903 581.0656 290.44028Q580.6906 290.4559 580.6281 290.4559L580.45624 290.4559Q580.40936 290.37778 580.40936 290.3309L580.40936 290.25278Q580.51874 290.11215 580.8156 290.06528L581.28436 289.9559Q581.3781 289.87778 581.39374 289.79965Q581.425 289.59653 581.47186 287.78403L581.4875 287.2059Q581.51874 286.28403 581.34686 285.69028Q581.2375 285.2684 580.84686 285.03403Q580.45624 284.78403 579.95624 284.78403Q579.53436 284.78403 579.15936 284.9559Q578.89374 285.09653 578.53436 285.42465Q578.175 285.75278 578.03436 285.98715Q577.9406 286.1434 577.9406 286.50278L577.95624 287.04965L577.9406 287.61215Q577.9406 287.69028 577.95624 288.59653L577.95624 289.09653L577.97186 289.6434Q577.97186 289.75278 577.9875 289.81528L579.09686 290.0809Q579.175 290.09653 579.34686 290.17465L579.3781 290.25278Q579.3781 290.29965 579.33124 290.37778Q579.1125 290.3934 578.9875 290.3934L578.3781 290.37778L577.03436 290.40903L576.03436 290.44028Q575.95624 290.42465 575.8 290.42465L575.78436 290.36215Q575.78436 290.29965 575.84686 290.2059ZM584.65936 280.78403Q584.65936 280.53403 584.8625 280.34653Q585.0656 280.15903 585.34686 280.15903Q585.6281 280.15903 585.84686 280.37778Q586.0656 280.5809 586.0656 280.81528Q586.0656 281.06528 585.84686 281.28403Q585.6281 281.48715 585.34686 281.48715Q585.05 281.48715 584.84686 281.29965Q584.65936 281.09653 584.65936 280.78403ZM584.0031 284.8309L584.01874 284.61215Q584.51874 284.4559 584.5656 284.44028Q584.84686 284.31528 585.14374 284.06528Q585.45624 283.79965 585.675 283.47153Q585.76874 283.4559 585.8156 283.4559L585.90936 283.47153Q585.9406 283.84653 585.9406 284.0184Q585.9406 284.04965 585.925 284.36215L585.925 284.78403L585.9406 287.03403L585.90936 289.40903Q585.90936 289.7059 586.0031 289.81528Q586.1125 289.92465 586.6125 290.06528Q586.925 290.15903 587.08124 290.22153Q587.09686 290.2684 587.09686 290.31528Q587.09686 290.36215 587.0656 290.44028Q586.7531 290.42465 586.28436 290.3934Q585.6281 290.3309 585.425 290.3309Q585.3156 290.3309 584.175 290.37778Q583.9406 290.37778 583.72186 290.42465Q583.675 290.42465 583.59686 290.3934Q583.55 290.3309 583.55 290.29965Q583.55 290.19028 583.70624 290.12778Q583.7375 290.11215 584.5031 289.94028Q584.7531 289.8934 584.83124 289.78403Q584.95624 289.62778 584.95624 289.2684Q584.97186 288.65903 584.97186 285.97153Q584.97186 285.42465 584.925 285.29965Q584.89374 285.2059 584.72186 285.0809Q584.55 284.9559 584.0031 284.8309ZM587.8156 280.56528L587.8156 280.53403Q587.8156 280.4559 587.8781 280.31528Q588.7375 280.15903 589.6906 279.86215Q589.7531 279.84653 589.8625 279.84653Q589.90936 279.97153 589.90936 280.0184L589.90936 282.34653L589.89374 283.0809L589.90936 283.90903L589.89374 284.5809Q589.89374 284.62778 589.90936 284.84653L590.55 284.61215Q590.64374 284.5809 591.22186 284.40903Q591.9406 284.28403 592.0656 284.28403Q592.84686 284.28403 593.47186 284.53403Q593.84686 284.69028 594.22186 285.06528Q594.59686 285.42465 594.78436 285.8309Q595.09686 286.56528 595.09686 287.11215Q595.09686 287.9559 594.9875 288.28403Q594.72186 289.06528 594.33124 289.5184Q593.95624 289.97153 593.26874 290.29965Q592.58124 290.62778 591.8 290.62778Q591.09686 290.62778 590.45624 290.36215Q589.83124 290.0809 589.7531 290.0809Q589.5031 290.0809 589.1281 290.73715L588.90936 290.72153Q588.8781 290.19028 588.8781 289.42465L588.89374 288.2684L588.8781 287.67465L588.89374 285.97153L588.8781 285.6434L588.90936 284.8309L588.90936 284.1434L588.925 283.86215Q588.925 283.78403 588.90936 283.19028L588.90936 282.72153Q588.9406 281.36215 588.8 281.1434Q588.5656 280.81528 587.8156 280.56528ZM591.53436 290.19028Q592.72186 290.19028 593.33124 289.5184Q593.95624 288.84653 593.95624 287.53403Q593.95624 286.31528 593.2531 285.56528Q592.55 284.81528 591.51874 284.81528Q590.76874 284.81528 590.26874 285.06528Q589.95624 285.2059 589.925 285.3309Q589.89374 285.4559 589.89374 287.00278Q589.89374 288.84653 589.97186 289.15903Q590.09686 289.6434 590.45624 289.84653Q591.0031 290.19028 591.53436 290.19028ZM595.3781 284.23715L598.39374 284.23715Q598.47186 284.23715 598.5031 284.2684Q598.53436 284.29965 598.53436 284.36215Q598.53436 284.5184 598.425 284.5809Q597.8781 284.62778 597.7375 284.72153Q597.6125 284.81528 597.6125 284.97153Q597.6125 285.04965 597.6281 285.12778Q597.64374 285.22153 597.84686 285.67465Q598.1125 286.29965 598.8 287.67465L599.72186 289.56528Q600.51874 288.17465 601.01874 286.98715L600.53436 285.73715Q600.45624 285.56528 600.33124 285.22153Q600.22186 284.87778 600.14374 284.81528Q600.08124 284.75278 599.65936 284.6434Q599.2531 284.5184 599.175 284.4559L599.175 284.40903Q599.175 284.36215 599.22186 284.2684Q599.40936 284.22153 599.51874 284.22153L599.95624 284.23715L600.9406 284.23715L601.2375 284.22153L602.1906 284.23715Q602.3156 284.23715 602.39374 284.23715L602.51874 284.23715Q602.5656 284.23715 602.65936 284.23715L602.64374 284.48715Q602.51874 284.56528 602.2531 284.59653Q601.7375 284.6434 601.45624 284.78403Q601.3781 284.87778 601.3781 284.9559Q601.3781 285.12778 601.47186 285.37778Q601.5031 285.4559 601.6281 285.86215L602.47186 288.06528Q602.83124 289.04965 603.03436 289.44028Q603.3625 288.84653 603.95624 287.28403Q604.15936 286.73715 604.51874 285.97153Q604.7375 285.50278 604.7375 285.15903Q604.7375 284.97153 604.59686 284.84653Q604.47186 284.72153 603.9875 284.61215Q603.70624 284.54965 603.5656 284.50278Q603.51874 284.44028 603.51874 284.3934Q603.51874 284.3309 603.6125 284.23715L603.72186 284.23715L604.3625 284.23715Q604.39374 284.23715 604.70624 284.25278Q605.03436 284.25278 605.34686 284.25278Q605.58124 284.25278 605.8781 284.23715L606.26874 284.23715Q606.3156 284.25278 606.33124 284.28403Q606.3625 284.29965 606.3625 284.36215Q606.3625 284.44028 606.33124 284.54965Q605.95624 284.59653 605.7375 284.72153Q605.51874 284.84653 605.14374 285.42465L603.7375 288.78403Q603.55 289.25278 603.0656 290.22153Q602.95624 290.44028 602.90936 290.56528Q602.8625 290.69028 602.8156 290.72153Q602.76874 290.7684 602.6906 290.7684Q602.6281 290.7684 602.53436 290.73715Q602.3156 290.29965 601.5656 288.36215Q601.3625 287.8309 601.1906 287.47153Q599.90936 290.12778 599.51874 290.75278Q599.40936 290.7684 599.34686 290.7684Q599.3 290.7684 599.1906 290.75278L597.72186 287.65903L596.3625 285.0184Q596.22186 284.7684 596.14374 284.72153Q596.01874 284.62778 595.675 284.5809Q595.4875 284.54965 595.3781 284.53403Q595.3781 284.40903 595.3781 284.34653Q595.3781 284.31528 595.3781 284.23715ZM612.90936 289.3309Q612.95624 289.42465 612.95624 289.47153Q612.95624 289.59653 612.76874 289.8934Q612.51874 290.28403 612.22186 290.47153Q612.03436 290.5809 611.70624 290.5809Q611.14374 290.5809 610.8625 290.23715Q610.6906 290.03403 610.6281 289.50278L609.7531 290.11215Q609.28436 290.37778 609.05 290.4559Q608.65936 290.56528 608.1125 290.56528Q607.70624 290.56528 607.47186 290.3309Q607.2531 290.0809 607.2531 289.7059Q607.2531 289.15903 607.90936 288.40903Q608.5656 287.65903 609.70624 287.19028Q610.5031 286.84653 610.675 286.75278Q610.6906 286.50278 610.6906 286.19028Q610.6906 285.2059 610.40936 284.86215Q610.14374 284.50278 609.6281 284.50278Q609.08124 284.50278 608.6125 284.92465Q608.33124 285.19028 608.175 285.92465Q608.1281 286.12778 608.0031 286.36215Q607.65936 286.5809 607.45624 286.5809Q607.28436 286.5809 607.14374 286.47153Q607.0656 286.42465 607.0656 286.34653Q607.0656 286.1434 607.5031 285.44028Q607.9406 284.72153 608.59686 284.36215Q609.2531 284.00278 609.7531 284.00278Q610.425 284.00278 610.7531 284.12778Q611.08124 284.25278 611.33124 284.56528Q611.58124 284.86215 611.6281 285.22153Q611.65936 285.3934 611.65936 286.44028L611.64374 287.69028L611.64374 288.59653Q611.64374 288.7684 611.64374 288.8934Q611.6281 289.12778 611.6281 289.23715Q611.6281 289.48715 611.78436 289.6434Q611.925 289.79965 612.1281 289.79965Q612.425 289.79965 612.64374 289.50278L612.7375 289.37778Q612.76874 289.36215 612.90936 289.3309ZM610.6125 289.09653Q610.65936 288.11215 610.65936 287.7059Q610.65936 287.48715 610.64374 287.12778Q610.1125 287.31528 609.51874 287.7059Q608.9406 288.0809 608.59686 288.5809Q608.34686 288.94028 608.34686 289.2684Q608.34686 289.56528 608.55 289.7684Q608.76874 289.97153 609.08124 289.97153Q609.3156 289.97153 609.65936 289.79965Q610.1125 289.5809 610.6125 289.09653ZM613.8156 280.56528L613.8156 280.53403Q613.8156 280.4559 613.8781 280.31528Q614.7375 280.15903 615.6906 279.86215Q615.7531 279.84653 615.8625 279.84653Q615.90936 279.97153 615.90936 280.0184L615.90936 282.34653L615.89374 283.0809L615.90936 283.90903L615.89374 284.5809Q615.89374 284.62778 615.90936 284.84653L616.55 284.61215Q616.64374 284.5809 617.22186 284.40903Q617.9406 284.28403 618.0656 284.28403Q618.84686 284.28403 619.47186 284.53403Q619.84686 284.69028 620.22186 285.06528Q620.59686 285.42465 620.78436 285.8309Q621.09686 286.56528 621.09686 287.11215Q621.09686 287.9559 620.9875 288.28403Q620.72186 289.06528 620.33124 289.5184Q619.95624 289.97153 619.26874 290.29965Q618.58124 290.62778 617.8 290.62778Q617.09686 290.62778 616.45624 290.36215Q615.83124 290.0809 615.7531 290.0809Q615.5031 290.0809 615.1281 290.73715L614.90936 290.72153Q614.8781 290.19028 614.8781 289.42465L614.89374 288.2684L614.8781 287.67465L614.89374 285.97153L614.8781 285.6434L614.90936 284.8309L614.90936 284.1434L614.925 283.86215Q614.925 283.78403 614.90936 283.19028L614.90936 282.72153Q614.9406 281.36215 614.8 281.1434Q614.5656 280.81528 613.8156 280.56528ZM617.53436 290.19028Q618.72186 290.19028 619.33124 289.5184Q619.95624 288.84653 619.95624 287.53403Q619.95624 286.31528 619.2531 285.56528Q618.55 284.81528 617.51874 284.81528Q616.76874 284.81528 616.26874 285.06528Q615.95624 285.2059 615.925 285.3309Q615.89374 285.4559 615.89374 287.00278Q615.89374 288.84653 615.97186 289.15903Q616.09686 289.6434 616.45624 289.84653Q617.0031 290.19028 617.53436 290.19028ZM621.3781 284.23715L624.39374 284.23715Q624.47186 284.23715 624.5031 284.2684Q624.53436 284.29965 624.53436 284.36215Q624.53436 284.5184 624.425 284.5809Q623.8781 284.62778 623.7375 284.72153Q623.6125 284.81528 623.6125 284.97153Q623.6125 285.04965 623.6281 285.12778Q623.64374 285.22153 623.84686 285.67465Q624.1125 286.29965 624.8 287.67465L625.72186 289.56528Q626.51874 288.17465 627.01874 286.98715L626.53436 285.73715Q626.45624 285.56528 626.33124 285.22153Q626.22186 284.87778 626.14374 284.81528Q626.08124 284.75278 625.65936 284.6434Q625.2531 284.5184 625.175 284.4559L625.175 284.40903Q625.175 284.36215 625.22186 284.2684Q625.40936 284.22153 625.51874 284.22153L625.95624 284.23715L626.9406 284.23715L627.2375 284.22153L628.1906 284.23715Q628.3156 284.23715 628.39374 284.23715L628.51874 284.23715Q628.5656 284.23715 628.65936 284.23715L628.64374 284.48715Q628.51874 284.56528 628.2531 284.59653Q627.7375 284.6434 627.45624 284.78403Q627.3781 284.87778 627.3781 284.9559Q627.3781 285.12778 627.47186 285.37778Q627.5031 285.4559 627.6281 285.86215L628.47186 288.06528Q628.83124 289.04965 629.03436 289.44028Q629.3625 288.84653 629.95624 287.28403Q630.15936 286.73715 630.51874 285.97153Q630.7375 285.50278 630.7375 285.15903Q630.7375 284.97153 630.59686 284.84653Q630.47186 284.72153 629.9875 284.61215Q629.70624 284.54965 629.5656 284.50278Q629.51874 284.44028 629.51874 284.3934Q629.51874 284.3309 629.6125 284.23715L629.72186 284.23715L630.3625 284.23715Q630.39374 284.23715 630.70624 284.25278Q631.03436 284.25278 631.34686 284.25278Q631.58124 284.25278 631.8781 284.23715L632.26874 284.23715Q632.3156 284.25278 632.33124 284.28403Q632.3625 284.29965 632.3625 284.36215Q632.3625 284.44028 632.33124 284.54965Q631.95624 284.59653 631.7375 284.72153Q631.51874 284.84653 631.14374 285.42465L629.7375 288.78403Q629.55 289.25278 629.0656 290.22153Q628.95624 290.44028 628.90936 290.56528Q628.8625 290.69028 628.8156 290.72153Q628.76874 290.7684 628.6906 290.7684Q628.6281 290.7684 628.53436 290.73715Q628.3156 290.29965 627.5656 288.36215Q627.3625 287.8309 627.1906 287.47153Q625.90936 290.12778 625.51874 290.75278Q625.40936 290.7684 625.34686 290.7684Q625.3 290.7684 625.1906 290.75278L623.72186 287.65903L622.3625 285.0184Q622.22186 284.7684 622.14374 284.72153Q622.01874 284.62778 621.675 284.5809Q621.4875 284.54965 621.3781 284.53403Q621.3781 284.40903 621.3781 284.34653Q621.3781 284.31528 621.3781 284.23715ZM638.90936 289.3309Q638.95624 289.42465 638.95624 289.47153Q638.95624 289.59653 638.76874 289.8934Q638.51874 290.28403 638.22186 290.47153Q638.03436 290.5809 637.70624 290.5809Q637.14374 290.5809 636.8625 290.23715Q636.6906 290.03403 636.6281 289.50278L635.7531 290.11215Q635.28436 290.37778 635.05 290.4559Q634.65936 290.56528 634.1125 290.56528Q633.70624 290.56528 633.47186 290.3309Q633.2531 290.0809 633.2531 289.7059Q633.2531 289.15903 633.90936 288.40903Q634.5656 287.65903 635.70624 287.19028Q636.5031 286.84653 636.675 286.75278Q636.6906 286.50278 636.6906 286.19028Q636.6906 285.2059 636.40936 284.86215Q636.14374 284.50278 635.6281 284.50278Q635.08124 284.50278 634.6125 284.92465Q634.33124 285.19028 634.175 285.92465Q634.1281 286.12778 634.0031 286.36215Q633.65936 286.5809 633.45624 286.5809Q633.28436 286.5809 633.14374 286.47153Q633.0656 286.42465 633.0656 286.34653Q633.0656 286.1434 633.5031 285.44028Q633.9406 284.72153 634.59686 284.36215Q635.2531 284.00278 635.7531 284.00278Q636.425 284.00278 636.7531 284.12778Q637.08124 284.25278 637.33124 284.56528Q637.58124 284.86215 637.6281 285.22153Q637.65936 285.3934 637.65936 286.44028L637.64374 287.69028L637.64374 288.59653Q637.64374 288.7684 637.64374 288.8934Q637.6281 289.12778 637.6281 289.23715Q637.6281 289.48715 637.78436 289.6434Q637.925 289.79965 638.1281 289.79965Q638.425 289.79965 638.64374 289.50278L638.7375 289.37778Q638.76874 289.36215 638.90936 289.3309ZM636.6125 289.09653Q636.65936 288.11215 636.65936 287.7059Q636.65936 287.48715 636.64374 287.12778Q636.1125 287.31528 635.51874 287.7059Q634.9406 288.0809 634.59686 288.5809Q634.34686 288.94028 634.34686 289.2684Q634.34686 289.56528 634.55 289.7684Q634.76874 289.97153 635.08124 289.97153Q635.3156 289.97153 635.65936 289.79965Q636.1125 289.5809 636.6125 289.09653Z" fill-rule="nonzero"/><path fill="#9e9e9e" d="M599.40936 302.5184Q600.3625 302.47153 602.0031 302.47153Q602.7375 302.47153 603.6906 302.50278Q604.26874 302.5184 604.45624 302.5184L605.20624 302.5184L605.39374 302.5184Q605.45624 302.5809 605.45624 302.62778Q605.45624 302.72153 605.26874 303.0809Q605.1906 303.23715 604.51874 304.79965Q604.1906 305.56528 603.70624 306.79965L602.72186 309.5809Q602.3781 310.53403 602.26874 310.90903L602.09686 311.62778Q601.9875 311.9559 601.9875 312.09653Q601.9875 312.22153 602.1125 312.47153Q602.01874 312.59653 601.6906 312.59653Q601.55 312.59653 601.40936 312.47153Q601.45624 312.00278 601.70624 311.25278Q601.8 310.97153 602.01874 310.17465Q602.2531 309.36215 602.47186 308.75278L603.3625 306.3309Q603.7531 305.29965 604.1125 304.42465Q604.2375 304.1434 604.3 304.0184Q604.45624 303.73715 604.45624 303.54965L604.3625 303.54965L604.26874 303.54965L603.2375 303.5184Q603.1906 303.5184 602.90936 303.53403Q602.6281 303.54965 602.4875 303.54965L601.28436 303.54965L600.90936 303.54965L600.39374 303.53403Q599.9406 303.5184 599.83124 303.6434Q599.72186 303.75278 599.70624 304.22153Q599.6906 304.3309 599.64374 304.44028Q599.55 304.47153 599.51874 304.47153Q599.425 304.47153 599.28436 304.40903Q599.3 304.2059 599.3 304.11215L599.3156 303.87778L599.28436 303.4559Q599.28436 302.8934 599.3156 302.69028Q599.33124 302.61215 599.40936 302.5184ZM609.5656 307.3934Q608.8156 306.98715 608.53436 306.75278Q608.14374 306.40903 607.8781 305.87778Q607.6281 305.34653 607.6281 304.79965Q607.6281 303.8309 608.39374 303.04965Q609.15936 302.25278 610.28436 302.25278Q611.53436 302.25278 612.26874 302.92465Q613.0031 303.5809 613.0031 304.53403Q613.0031 305.06528 612.78436 305.50278Q612.5656 305.94028 612.14374 306.29965Q611.84686 306.53403 611.14374 306.8934Q612.22186 307.47153 612.425 307.62778Q612.84686 307.9559 613.1281 308.50278Q613.425 309.03403 613.425 309.69028Q613.425 310.92465 612.5656 311.7684Q611.72186 312.61215 610.40936 312.61215Q609.0656 312.61215 608.2531 311.87778Q607.45624 311.12778 607.45624 310.04965Q607.45624 309.42465 607.65936 308.92465Q607.8781 308.42465 608.33124 308.06528Q608.675 307.78403 609.5656 307.3934ZM610.8 306.72153Q611.45624 306.36215 611.70624 305.97153Q612.1281 305.34653 612.1281 304.53403Q612.1281 303.90903 611.8781 303.47153Q611.6281 303.0184 611.20624 302.8309Q610.8 302.62778 610.3156 302.62778Q609.53436 302.62778 609.03436 303.15903Q608.53436 303.69028 608.53436 304.4559Q608.53436 304.90903 608.65936 305.22153Q608.8 305.5184 609.09686 305.7684Q609.28436 305.94028 609.97186 306.3934Q610.0656 306.4559 610.45624 306.5809Q610.58124 306.62778 610.8 306.72153ZM609.95624 307.56528Q609.39374 307.86215 609.15936 308.09653Q608.8156 308.42465 608.6125 308.87778Q608.425 309.3309 608.425 310.12778Q608.425 310.9559 608.8 311.44028Q609.40936 312.22153 610.39374 312.22153Q611.28436 312.22153 611.8625 311.65903Q612.4406 311.0809 612.4406 310.19028Q612.4406 309.2059 611.84686 308.6434Q611.26874 308.06528 609.95624 307.56528ZM615.20624 315.17465L615.22186 314.94028Q615.3156 314.8934 615.40936 314.84653Q616.22186 314.4559 616.5031 314.03403Q616.78436 313.62778 616.78436 313.29965Q616.78436 313.0809 616.6281 312.90903Q616.47186 312.75278 616.08124 312.65903Q615.70624 312.5809 615.59686 312.53403Q615.51874 312.50278 615.39374 312.37778Q615.3156 312.2059 615.3156 312.06528Q615.3156 311.69028 615.47186 311.56528Q615.78436 311.28403 616.1125 311.28403Q616.70624 311.28403 617.14374 311.75278Q617.58124 312.2059 617.58124 312.8934Q617.58124 313.37778 617.26874 313.92465Q616.95624 314.48715 616.3156 314.8309Q615.6906 315.17465 615.20624 315.17465ZM624.70624 302.15903Q624.76874 302.2684 624.8 302.40903Q624.7531 302.50278 624.65936 302.53403Q624.33124 302.61215 623.6906 302.98715Q623.53436 303.06528 622.78436 303.7059Q622.4406 303.94028 621.97186 304.5809Q621.3156 305.44028 621.03436 306.12778Q620.7531 306.79965 620.53436 307.8934Q620.47186 308.2059 620.45624 308.98715L620.425 309.28403Q620.425 310.28403 621.01874 311.28403Q621.6125 312.2684 622.4875 312.2684Q622.95624 312.2684 623.34686 311.98715Q623.7531 311.7059 623.9875 311.03403Q624.22186 310.36215 624.22186 309.40903Q624.22186 308.11215 623.72186 307.50278Q623.2375 306.87778 622.53436 306.87778Q622.33124 306.87778 622.15936 306.94028L622.09686 306.9559Q622.0031 306.9559 621.89374 306.72153Q622.09686 306.59653 622.3781 306.5184Q622.675 306.42465 622.7531 306.42465Q622.8156 306.42465 623.47186 306.53403L623.6906 306.6434Q624.0656 306.7684 624.26874 306.92465Q624.6281 307.2059 624.90936 307.6434Q625.05 307.87778 625.28436 308.56528Q625.3 308.61215 625.39374 309.25278L625.34686 310.03403Q625.1906 310.73715 625.03436 311.0184Q624.8156 311.4559 624.3 311.9559Q624.03436 312.22153 623.6125 312.37778Q623.01874 312.61215 622.3625 312.61215Q621.09686 312.61215 620.20624 311.59653Q619.33124 310.5809 619.33124 308.65903Q619.33124 307.59653 619.65936 306.6434Q619.9875 305.67465 620.59686 304.87778Q621.0031 304.34653 621.6906 303.73715Q622.39374 303.11215 623.01874 302.7684Q623.8781 302.31528 624.70624 302.15903ZM629.425 312.92465Q629.4875 312.7684 629.58124 312.62778Q629.675 312.48715 629.83124 312.23715Q629.8781 312.1434 630.40936 311.36215Q630.9406 310.56528 631.1281 310.23715Q634.6281 304.31528 636.1906 302.2059L636.26874 302.19028Q636.6281 302.22153 636.675 302.22153L633.26874 307.56528L631.70624 310.1434L629.90936 312.90903L629.8625 312.90903Q629.8156 312.90903 629.4875 312.92465L629.425 312.92465ZM631.1125 304.94028Q631.1125 306.17465 630.4875 306.90903Q629.8781 307.62778 629.1125 307.62778Q628.33124 307.62778 627.72186 306.94028Q627.1281 306.23715 627.1281 305.0184Q627.1281 304.17465 627.4406 303.44028Q627.675 302.8934 628.14374 302.54965Q628.6125 302.2059 629.14374 302.2059Q629.6906 302.2059 630.175 302.56528Q630.65936 302.92465 630.9406 303.62778Q631.1125 304.11215 631.1125 304.94028ZM630.2375 305.0809Q630.2375 303.92465 630.175 303.5809Q630.0656 302.98715 629.8 302.73715Q629.53436 302.48715 629.14374 302.48715Q628.6281 302.48715 628.33124 302.94028Q628.03436 303.37778 628.03436 305.11215Q628.03436 306.48715 628.33124 306.92465Q628.64374 307.36215 629.09686 307.36215Q629.6281 307.36215 629.89374 306.98715Q630.2375 306.48715 630.2375 305.0809ZM639.1906 309.81528Q639.1906 311.04965 638.5656 311.78403Q637.9406 312.5184 637.175 312.5184Q636.39374 312.5184 635.78436 311.81528Q635.1906 311.11215 635.1906 309.8934Q635.1906 309.04965 635.5031 308.31528Q635.7375 307.7684 636.20624 307.42465Q636.675 307.0809 637.20624 307.0809Q637.7531 307.0809 638.2375 307.44028Q638.72186 307.79965 639.0031 308.5184Q639.1906 308.98715 639.1906 309.81528ZM638.3156 309.9559Q638.3156 308.81528 638.2375 308.4559Q638.1281 307.86215 637.8625 307.61215Q637.59686 307.36215 637.20624 307.36215Q636.6906 307.36215 636.39374 307.81528Q636.09686 308.25278 636.09686 309.98715Q636.09686 311.36215 636.39374 311.79965Q636.70624 312.23715 637.175 312.23715Q637.6906 312.23715 637.95624 311.86215Q638.3156 311.37778 638.3156 309.9559Z" fill-rule="nonzero"/><path stroke="#757575" stroke-width="1.0" stroke-linecap="butt" d="M639.55 296.8934L501.23334 296.8934L427.76004 296.8934" fill-rule="nonzero"/><path fill="#9e9e9e" d="M429.76004 296.8934C429.76004 295.78882 428.8646 294.8934 427.76004 294.8934C426.65546 294.8934 425.76004 295.78882 425.76004 296.8934C425.76004 297.99796 426.65546 298.8934 427.76004 298.8934C428.8646 298.8934 429.76004 297.99796 429.76004 296.8934" fill-rule="nonzero"/><path fill="#000000" d="M20.934376 38.29375Q21.04375 38.2 21.10625 38.184376Q21.278126 38.1375 21.66875 38.10625Q22.621876 38.04375 22.840626 37.934376Q22.98125 37.73125 22.98125 37.3875L22.965626 36.7L22.98125 34.215626L22.965626 33.04375L22.965626 30.590626L22.91875 27.809376Q22.91875 26.825 22.79375 26.684376Q22.621876 26.5125 21.746876 26.48125Q21.371876 26.465626 21.090626 26.41875Q20.965626 26.35625 20.965626 26.246876Q20.965626 26.16875 21.0125 26.059376Q21.10625 26.0125 21.16875 26.0125Q21.309376 26.0125 21.5125 26.0125Q22.075 26.059376 22.7 26.059376L23.41875 26.04375L25.1375 26.090626Q26.434376 26.090626 27.153126 26.059376Q27.871876 26.028126 28.121876 26.028126Q28.35625 26.028126 29.246876 26.059376L30.621876 26.059376L30.79375 26.090626L31.60625 26.059376L31.7 26.10625Q31.746876 26.184376 31.7625 26.278126Q31.7625 26.403126 31.715626 26.7Q31.684376 26.98125 31.684376 27.04375Q31.684376 28.059376 31.746876 28.7625Q31.746876 28.825 31.684376 28.840626Q31.590626 28.840626 31.496876 28.809376Q31.3875 28.621876 31.2 28.153126Q31.028126 27.684376 30.66875 27.075Q30.41875 26.66875 30.278126 26.590626Q30.153126 26.5125 29.715626 26.5125Q29.6375 26.5125 28.825 26.48125Q28.621876 26.48125 28.403126 26.48125L25.621876 26.528126L25.3875 26.528126Q24.840626 26.528126 24.73125 26.66875Q24.575 26.903126 24.575 28.04375Q24.575 28.16875 24.621876 30.3875L24.621876 31.746876Q24.73125 31.778126 24.85625 31.778126L25.028126 31.778126Q25.184376 31.778126 25.5125 31.79375Q26.0125 31.809376 26.2 31.809376Q26.309376 31.809376 26.403126 31.79375Q27.45 31.7625 29.10625 31.7625Q29.6375 31.66875 29.715626 31.559376Q29.871876 31.371876 29.934376 30.6375Q30.0125 29.8875 30.2625 29.79375Q30.3875 29.79375 30.496876 29.840626Q30.5125 29.91875 30.5125 29.996876Q30.5125 30.059376 30.496876 30.215626Q30.45 30.575 30.45 32.48125Q30.45 32.996876 30.496876 33.621876Q30.559376 34.246876 30.559376 34.29375Q30.559376 34.371876 30.528126 34.528126Q30.45 34.559376 30.403126 34.559376L30.340626 34.559376Q30.184376 34.29375 30.028126 33.715626Q29.778126 32.73125 29.496876 32.48125Q29.215626 32.23125 28.590626 32.23125Q28.465626 32.23125 28.090626 32.246876Q27.73125 32.2625 27.028126 32.2625L26.3875 32.2625Q25.028126 32.2625 24.60625 32.309376L24.60625 32.6375L24.60625 34.434376L24.60625 35.575L24.60625 36.66875Q24.621876 37.66875 24.73125 37.825Q24.903126 38.04375 25.465626 38.04375L26.059376 38.028126Q26.1375 38.028126 26.66875 38.04375Q27.2 38.059376 27.98125 38.059376Q29.871876 38.059376 30.496876 37.903126Q31.121876 37.73125 31.5125 37.325Q31.91875 36.91875 32.54375 35.559376Q32.73125 35.153126 32.91875 35.153126Q32.996876 35.153126 33.10625 35.23125Q32.825 36.2 32.778126 36.5125Q32.684376 37.184376 32.653126 37.903126Q32.653126 38.23125 32.496876 38.434376L32.29375 38.434376L29.54375 38.465626L28.309376 38.465626L25.3875 38.496876L24.184376 38.496876Q23.965626 38.496876 23.778126 38.5125Q22.0125 38.590626 21.184376 38.590626Q21.04375 38.590626 20.98125 38.54375Q20.934376 38.496876 20.934376 38.3875L20.934376 38.29375ZM33.965626 26.35625L33.965626 26.1375Q34.23125 26.04375 34.559376 25.95Q35.059376 25.79375 36.0125 25.465626L36.465626 25.465626Q36.48125 25.934376 36.48125 26.0125Q36.48125 34.028126 36.434376 35.575Q36.403126 36.48125 36.403126 36.528126Q36.403126 37.621876 36.48125 37.7625Q36.60625 37.934376 37.2 38.0125Q37.809376 38.075 37.91875 38.1375Q37.996876 38.16875 37.996876 38.278126Q37.996876 38.3875 37.95 38.434376Q37.903126 38.465626 37.79375 38.465626Q37.715626 38.465626 36.7625 38.434376L35.48125 38.403126L33.840626 38.465626Q33.684376 38.48125 33.60625 38.403126Q33.54375 38.35625 33.54375 38.278126Q33.54375 38.16875 33.60625 38.1375Q33.66875 38.090626 34.309376 37.98125Q34.95 37.871876 35.04375 37.809376Q35.1375 37.73125 35.16875 37.465626Q35.215626 37.121876 35.215626 35.496876L35.2 33.246876L35.23125 30.91875L35.215626 28.590626L35.246876 27.45Q35.246876 27.10625 35.1375 26.965626Q35.028126 26.809376 34.684376 26.66875Q34.153126 26.45 33.965626 26.35625ZM46.184376 33.29375L42.2625 33.325L41.528126 33.325Q41.075 33.325 40.60625 33.35625Q40.528126 33.653126 40.528126 33.7625L40.528126 33.85625L40.528126 33.95L40.528126 34.434376Q40.528126 35.028126 40.903126 35.903126Q41.278126 36.7625 41.965626 37.215626Q42.66875 37.66875 43.715626 37.7Q44.278126 37.66875 44.60625 37.559376Q44.934376 37.45 45.54375 37.059376L46.246876 36.48125L46.309376 36.871876Q46.309376 36.95 46.29375 37.028126Q45.85625 37.575 45.184376 37.996876Q44.5125 38.41875 43.809376 38.621876Q43.48125 38.7 42.715626 38.7Q42.028126 38.7 41.35625 38.41875Q40.35625 37.996876 39.778126 37.04375Q39.215626 36.090626 39.215626 34.73125Q39.215626 34.29375 39.371876 33.621876Q39.528126 32.95 39.95 32.184376Q40.23125 31.66875 40.653126 31.340626Q41.23125 30.871876 41.66875 30.684376Q42.309376 30.41875 43.153126 30.41875Q44.059376 30.41875 44.6375 30.746876Q45.41875 31.2 45.79375 31.8875Q46.184376 32.575 46.184376 33.153126L46.184376 33.29375ZM40.73125 32.934376L41.2 32.934376Q41.7 32.934376 44.16875 32.778126Q44.559376 32.7625 44.6375 32.7Q44.825 32.528126 44.825 32.371876Q44.825 32.075 44.621876 31.684376Q44.434376 31.29375 44.028126 31.090626Q43.621876 30.8875 43.075 30.8875Q41.95 30.8875 41.2625 31.73125Q40.73125 32.371876 40.73125 32.934376ZM54.246876 36.66875L54.2625 37.29375Q53.496876 38.10625 52.746876 38.434376Q52.0125 38.746876 51.0125 38.746876Q49.91875 38.746876 49.028126 38.184376Q48.153126 37.60625 47.684376 36.559376Q47.215626 35.5125 47.215626 34.5125Q47.215626 33.403126 47.778126 32.434376Q48.35625 31.45 49.29375 30.965626Q50.246876 30.48125 51.66875 30.48125Q53.028126 30.48125 53.746876 30.95Q54.153126 31.215626 54.153126 31.653126Q54.153126 31.965626 53.934376 32.16875Q53.73125 32.371876 53.41875 32.371876Q52.91875 32.371876 52.340626 31.7625Q51.98125 31.403126 51.684376 31.2625Q51.3875 31.121876 51.028126 31.121876Q50.16875 31.121876 49.590626 31.825Q48.778126 32.840626 48.778126 34.371876Q48.778126 35.965626 49.590626 36.903126Q50.41875 37.840626 51.5125 37.840626Q52.278126 37.840626 52.871876 37.590626Q53.465626 37.340626 54.246876 36.66875ZM57.246876 28.79375L57.54375 28.809376L57.590626 29.73125L57.559376 30.934376Q57.746876 30.95 57.79375 30.95Q58.059376 30.95 58.7625 30.903126Q59.23125 30.8875 59.653126 30.8875Q59.840626 30.8875 60.23125 30.8875Q60.246876 31.090626 60.246876 31.2Q60.246876 31.325 60.2 31.60625L60.028126 31.60625L58.5125 31.653126L57.7625 31.66875L57.590626 31.684376Q57.5125 31.934376 57.5125 32.2625L57.54375 33.715626L57.5125 36.29375Q57.5125 37.309376 57.778126 37.653126Q58.028126 37.996876 58.54375 37.996876Q58.79375 37.996876 59.496876 37.840626Q59.715626 37.778126 60.075 37.5125L60.16875 37.5125Q60.246876 37.5125 60.29375 37.575Q60.35625 37.621876 60.35625 37.7L60.35625 37.778126Q59.934376 38.23125 59.3875 38.45Q58.840626 38.653126 57.95 38.653126Q57.309376 38.653126 56.8875 38.371876Q56.48125 38.075 56.35625 37.66875Q56.246876 37.2625 56.246876 35.91875L56.29375 33.715626L56.278126 32.66875L56.278126 32.278126Q56.278126 31.996876 56.2625 31.73125L56.090626 31.715626L55.29375 31.746876L55.215626 31.7625Q55.10625 31.7625 55.04375 31.715626Q54.996876 31.66875 54.996876 31.590626Q54.996876 31.48125 55.059376 31.403126Q55.1375 31.325 55.5125 31.16875Q55.7625 31.059376 56.10625 30.7625Q56.45 30.465626 56.684376 30.10625Q56.79375 29.91875 57.0125 29.371876Q57.16875 28.965626 57.246876 28.79375ZM61.840626 26.45Q61.840626 26.121876 62.090626 25.8875Q62.340626 25.653126 62.684376 25.653126Q63.04375 25.653126 63.309376 25.91875Q63.590626 26.184376 63.590626 26.48125Q63.590626 26.79375 63.309376 27.059376Q63.04375 27.325 62.684376 27.325Q62.325 27.325 62.075 27.090626Q61.840626 26.840626 61.840626 26.45ZM61.0125 31.5125L61.028126 31.215626Q61.66875 31.04375 61.715626 31.0125Q62.059376 30.85625 62.45 30.528126Q62.840626 30.2 63.090626 29.809376Q63.215626 29.79375 63.278126 29.79375L63.403126 29.79375Q63.434376 30.2625 63.434376 30.48125Q63.434376 30.528126 63.41875 30.91875L63.41875 31.434376L63.434376 34.246876L63.403126 37.23125Q63.3875 37.590626 63.5125 37.73125Q63.6375 37.871876 64.2625 38.04375Q64.65312 38.153126 64.85625 38.23125Q64.8875 38.309376 64.8875 38.35625Q64.8875 38.403126 64.84062 38.496876Q64.45 38.496876 63.85625 38.45Q63.04375 38.3875 62.778126 38.3875Q62.653126 38.3875 61.215626 38.434376Q60.934376 38.434376 60.653126 38.48125Q60.60625 38.48125 60.496876 38.45Q60.45 38.3875 60.45 38.325Q60.45 38.2 60.6375 38.121876Q60.66875 38.090626 61.6375 37.8875Q61.95 37.840626 62.04375 37.7Q62.215626 37.496876 62.215626 37.04375Q62.23125 36.29375 62.23125 32.91875Q62.23125 32.246876 62.16875 32.075Q62.121876 31.965626 61.903126 31.825Q61.7 31.66875 61.0125 31.5125ZM66.16875 34.528126Q66.16875 33.85625 66.43437 33.10625Q66.71562 32.340626 67.27812 31.746876Q67.85625 31.1375 68.48125 30.85625Q69.37187 30.434376 70.65312 30.434376Q72.48125 30.434376 73.7 31.684376Q74.93437 32.934376 74.93437 34.7Q74.93437 36.2625 73.65312 37.496876Q72.37187 38.715626 70.40312 38.715626Q69.18437 38.715626 68.12187 38.075Q67.30937 37.60625 66.73125 36.66875Q66.16875 35.73125 66.16875 34.528126ZM70.48125 38.325Q71.21562 38.325 71.90312 37.934376Q72.60625 37.528126 73.0125 36.653126Q73.41875 35.7625 73.41875 34.60625Q73.41875 33.840626 73.09062 32.840626Q72.77812 31.825 72.12187 31.325Q71.46562 30.825 70.575 30.825Q69.93437 30.825 69.2625 31.1375Q68.59062 31.434376 68.12187 32.29375Q67.66875 33.153126 67.66875 34.73125Q67.66875 36.5125 68.46562 37.41875Q69.27812 38.325 70.48125 38.325ZM75.825 38.1375Q76.05937 38.075 76.3875 38.0125Q76.99687 37.934376 77.12187 37.825Q77.24687 37.7 77.24687 37.278126L77.2625 36.91875Q77.27812 36.73125 77.27812 36.434376L77.2625 33.434376Q77.2625 32.825 77.10625 32.653126Q76.84062 32.371876 76.12187 32.2625L76.12187 31.91875Q76.84062 31.715626 77.21562 31.403126Q77.77812 30.965626 78.15312 30.215626L78.48125 30.23125Q78.5125 30.684376 78.5125 30.8875L78.5125 31.528126L78.52812 31.7Q78.6375 31.621876 78.79375 31.5125Q79.3875 31.059376 79.99687 30.79375Q80.62187 30.5125 81.09062 30.403126Q81.40312 30.325 81.77812 30.325Q82.575 30.325 83.15312 30.7625Q83.73125 31.184376 83.90312 31.7625Q84.075 32.340626 84.075 34.075L84.075 35.54375Q84.075 35.60625 84.05937 35.95Q84.04375 36.278126 84.04375 36.7Q84.04375 37.3875 84.10625 37.575Q84.15312 37.7 84.35625 37.825Q85.29375 37.95 85.45 38.121876L85.45 38.2Q85.45 38.309376 85.3875 38.45L85.2 38.45L83.91875 38.434376L82.65312 38.465626Q81.95 38.48125 81.35625 38.45L81.29375 38.246876Q81.29375 38.184376 81.35625 38.090626Q81.62187 37.965626 82.10625 37.934376Q82.3875 37.91875 82.49687 37.8875Q82.60625 37.840626 82.7625 37.715626Q82.87187 37.48125 82.87187 37.325Q82.87187 37.2625 82.85625 37.059376Q82.825 36.60625 82.80937 34.809376L82.80937 34.309376L82.84062 33.528126Q82.84062 32.2625 82.325 31.79375Q81.825 31.309376 80.96562 31.309376Q80.30937 31.309376 79.68437 31.60625Q79.05937 31.8875 78.48125 32.465626Q78.46562 32.934376 78.46562 33.2625L78.48125 35.41875Q78.48125 37.10625 78.54375 37.496876Q78.55937 37.653126 78.60625 37.7Q78.68437 37.778126 78.91875 37.840626Q79.15312 37.8875 79.45 37.98125Q79.7625 38.059376 79.87187 38.075Q80.05937 38.121876 80.12187 38.278126L80.12187 38.465626L79.09062 38.465626L76.98125 38.434376Q76.24687 38.465626 76.05937 38.465626L75.80937 38.465626L75.79375 38.325Q75.79375 38.2625 75.825 38.1375ZM90.85625 38.48125L90.80937 38.35625Q90.80937 38.278126 90.90312 38.153126L91.48125 38.028126L92.29375 37.8875Q92.3875 37.840626 92.41875 37.746876Q92.48125 37.621876 92.48125 36.996876Q92.48125 33.66875 92.43437 33.16875Q92.40312 32.653126 92.2625 32.5125Q92.1375 32.371876 91.55937 32.29375Q91.23125 32.246876 91.04375 32.16875L91.075 31.871876Q92.10625 31.45 92.45 31.153126Q92.93437 30.715626 93.27812 29.996876L93.62187 30.0125Q93.66875 30.496876 93.66875 32.184376L93.66875 32.340626Q93.66875 32.403126 93.68437 32.528126Q94.05937 31.85625 94.60625 31.29375L94.84062 31.059376Q94.96562 30.903126 95.10625 30.825Q95.77812 30.41875 96.12187 30.41875Q96.54375 30.41875 96.80937 30.7Q97.09062 30.98125 97.09062 31.403126Q97.09062 31.746876 96.90312 31.91875Q96.6375 32.16875 96.29375 32.16875Q96.1375 32.16875 95.66875 32.0125Q95.21562 31.840626 95.075 31.840626Q94.79375 31.840626 94.68437 31.91875Q94.41875 32.1375 94.02812 32.809376Q93.71562 33.309376 93.71562 33.715626L93.77812 35.340626L93.79375 37.2625Q93.825 37.60625 93.87187 37.7Q93.90312 37.7625 94.05937 37.85625Q95.12187 37.95 95.30937 37.996876Q95.45 37.996876 95.5125 38.0125Q95.93437 38.0125 96.10625 38.121876Q96.2 38.16875 96.2 38.278126Q96.2 38.325 96.12187 38.434376L95.02812 38.41875L94.62187 38.403126L94.02812 38.41875L93.02812 38.41875L92.49687 38.45L90.85625 38.48125ZM105.18437 33.29375L101.2625 33.325L100.52812 33.325Q100.075 33.325 99.60625 33.35625Q99.52812 33.653126 99.52812 33.7625L99.52812 33.85625L99.52812 33.95L99.52812 34.434376Q99.52812 35.028126 99.90312 35.903126Q100.27812 36.7625 100.96562 37.215626Q101.66875 37.66875 102.71562 37.7Q103.27812 37.66875 103.60625 37.559376Q103.93437 37.45 104.54375 37.059376L105.24687 36.48125L105.30937 36.871876Q105.30937 36.95 105.29375 37.028126Q104.85625 37.575 104.18437 37.996876Q103.5125 38.41875 102.80937 38.621876Q102.48125 38.7 101.71562 38.7Q101.02812 38.7 100.35625 38.41875Q99.35625 37.996876 98.77812 37.04375Q98.21562 36.090626 98.21562 34.73125Q98.21562 34.29375 98.37187 33.621876Q98.52812 32.95 98.95 32.184376Q99.23125 31.66875 99.65312 31.340626Q100.23125 30.871876 100.66875 30.684376Q101.30937 30.41875 102.15312 30.41875Q103.05937 30.41875 103.6375 30.746876Q104.41875 31.2 104.79375 31.8875Q105.18437 32.575 105.18437 33.153126L105.18437 33.29375ZM99.73125 32.934376L100.2 32.934376Q100.7 32.934376 103.16875 32.778126Q103.55937 32.7625 103.6375 32.7Q103.825 32.528126 103.825 32.371876Q103.825 32.075 103.62187 31.684376Q103.43437 31.29375 103.02812 31.090626Q102.62187 30.8875 102.075 30.8875Q100.95 30.8875 100.2625 31.73125Q99.73125 32.371876 99.73125 32.934376ZM106.87187 35.965626Q107.23125 36.903126 107.41875 37.16875Q107.77812 37.73125 108.29375 38.04375Q108.825 38.340626 109.41875 38.340626Q109.98125 38.340626 110.52812 37.85625Q110.91875 37.496876 110.91875 37.028126Q110.91875 36.3875 110.46562 35.85625Q109.99687 35.325 108.71562 34.840626Q107.43437 34.35625 106.99687 33.809376Q106.55937 33.2625 106.55937 32.559376Q106.55937 31.903126 106.91875 31.403126Q107.27812 30.8875 107.90312 30.621876Q108.54375 30.35625 109.09062 30.35625Q109.77812 30.35625 110.325 30.465626Q110.8875 30.575 111.27812 30.809376Q111.35625 31.29375 111.40312 32.2625L111.43437 32.575Q111.29375 32.590626 111.21562 32.590626L111.075 32.590626Q110.77812 31.778126 110.16875 31.309376Q109.575 30.825 108.99687 30.825Q108.40312 30.825 108.04375 31.184376Q107.68437 31.54375 107.68437 32.121876Q107.68437 32.559376 107.98125 32.903126Q108.27812 33.246876 109.35625 33.684376Q110.43437 34.121876 110.91875 34.496876Q111.41875 34.871876 111.65312 35.41875Q111.8875 35.95 111.8875 36.434376Q111.8875 37.10625 111.43437 37.7Q110.99687 38.278126 110.325 38.5125Q109.65312 38.7625 109.1375 38.7625Q107.8875 38.7625 106.84062 38.309376Q106.74687 38.23125 106.74687 38.0125Q106.74687 37.91875 106.71562 37.73125Q106.55937 36.403126 106.55937 36.16875Q106.55937 36.04375 106.60625 36.0125Q106.66875 35.965626 106.87187 35.965626ZM112.77812 30.778126L113.5125 30.778126L113.825 30.809376L114.075 30.778126Q115.09062 30.778126 115.325 30.809376L115.34062 30.98125Q115.34062 32.371876 115.30937 33.653126Q115.27812 34.41875 115.27812 34.528126Q115.27812 36.246876 115.3875 36.684376Q115.49687 37.10625 115.90312 37.371876Q116.325 37.621876 116.91875 37.621876Q117.62187 37.621876 118.2625 37.325Q118.91875 37.028126 119.3875 36.590626Q119.43437 36.215626 119.43437 35.778126Q119.43437 34.325 119.46562 33.809376Q119.46562 33.5125 119.46562 33.278126Q119.46562 31.7 119.30937 31.496876Q119.15312 31.29375 118.12187 31.184376Q117.77812 31.1375 117.62187 31.121876Q117.54375 30.98125 117.54375 30.91875L117.575 30.809376Q117.825 30.778126 118.075 30.778126L119.62187 30.809376Q120.46562 30.778126 120.5125 30.778126Q120.62187 30.778126 120.71562 30.79375L120.73125 31.5125Q120.66875 32.996876 120.65312 35.184376L120.6375 35.965626L120.66875 37.29375Q120.7625 37.45 120.825 37.48125Q120.95 37.528126 121.30937 37.528126L121.40312 37.528126Q121.52812 37.528126 122.12187 37.590626Q122.12187 37.715626 122.12187 37.778126L122.12187 37.8875Q120.825 38.16875 120.0125 38.45Q119.68437 38.559376 119.46562 38.60625Q119.41875 38.2625 119.41875 38.184376L119.41875 37.3875Q119.41875 37.340626 119.40312 37.1375Q119.27812 37.215626 119.10625 37.340626Q118.34062 37.934376 117.48125 38.35625Q116.90312 38.6375 116.37187 38.6375Q115.34062 38.6375 114.7 37.871876Q114.04375 37.10625 114.04375 35.278126Q114.04375 35.184376 114.05937 34.91875Q114.09062 34.45 114.09062 34.2625Q114.09062 34.2 114.075 33.840626Q114.075 33.684376 114.075 33.559376Q114.075 33.48125 114.075 33.16875Q114.09062 32.85625 114.09062 32.73125Q114.09062 32.575 114.075 32.45L114.05937 31.91875L114.075 31.653126Q114.075 31.496876 113.91875 31.371876Q113.29375 31.2 113.10625 31.184376Q112.91875 31.153126 112.77812 31.090626L112.77812 30.778126ZM122.96562 26.35625L122.96562 26.1375Q123.23125 26.04375 123.55937 25.95Q124.05937 25.79375 125.0125 25.465626L125.46562 25.465626Q125.48125 25.934376 125.48125 26.0125Q125.48125 34.028126 125.43437 35.575Q125.40312 36.48125 125.40312 36.528126Q125.40312 37.621876 125.48125 37.7625Q125.60625 37.934376 126.2 38.0125Q126.80937 38.075 126.91875 38.1375Q126.99687 38.16875 126.99687 38.278126Q126.99687 38.3875 126.95 38.434376Q126.90312 38.465626 126.79375 38.465626Q126.71562 38.465626 125.7625 38.434376L124.48125 38.403126L122.84062 38.465626Q122.68437 38.48125 122.60625 38.403126Q122.54375 38.35625 122.54375 38.278126Q122.54375 38.16875 122.60625 38.1375Q122.66875 38.090626 123.30937 37.98125Q123.95 37.871876 124.04375 37.809376Q124.1375 37.73125 124.16875 37.465626Q124.21562 37.121876 124.21562 35.496876L124.2 33.246876L124.23125 30.91875L124.21562 28.590626L124.24687 27.45Q124.24687 27.10625 124.1375 26.965626Q124.02812 26.809376 123.68437 26.66875Q123.15312 26.45 122.96562 26.35625ZM130.24687 28.79375L130.54375 28.809376L130.59062 29.73125L130.55937 30.934376Q130.74687 30.95 130.79375 30.95Q131.05937 30.95 131.7625 30.903126Q132.23125 30.8875 132.65312 30.8875Q132.84062 30.8875 133.23125 30.8875Q133.24687 31.090626 133.24687 31.2Q133.24687 31.325 133.2 31.60625L133.02812 31.60625L131.5125 31.653126L130.7625 31.66875L130.59062 31.684376Q130.5125 31.934376 130.5125 32.2625L130.54375 33.715626L130.5125 36.29375Q130.5125 37.309376 130.77812 37.653126Q131.02812 37.996876 131.54375 37.996876Q131.79375 37.996876 132.49687 37.840626Q132.71562 37.778126 133.075 37.5125L133.16875 37.5125Q133.24687 37.5125 133.29375 37.575Q133.35625 37.621876 133.35625 37.7L133.35625 37.778126Q132.93437 38.23125 132.3875 38.45Q131.84062 38.653126 130.95 38.653126Q130.30937 38.653126 129.8875 38.371876Q129.48125 38.075 129.35625 37.66875Q129.24687 37.2625 129.24687 35.91875L129.29375 33.715626L129.27812 32.66875L129.27812 32.278126Q129.27812 31.996876 129.2625 31.73125L129.09062 31.715626L128.29375 31.746876L128.21562 31.7625Q128.10625 31.7625 128.04375 31.715626Q127.99687 31.66875 127.99687 31.590626Q127.99687 31.48125 128.05937 31.403126Q128.1375 31.325 128.5125 31.16875Q128.7625 31.059376 129.10625 30.7625Q129.45 30.465626 129.68437 30.10625Q129.79375 29.91875 130.0125 29.371876Q130.16875 28.965626 130.24687 28.79375ZM134.87187 35.965626Q135.23125 36.903126 135.41875 37.16875Q135.77812 37.73125 136.29375 38.04375Q136.825 38.340626 137.41875 38.340626Q137.98125 38.340626 138.52812 37.85625Q138.91875 37.496876 138.91875 37.028126Q138.91875 36.3875 138.46562 35.85625Q137.99687 35.325 136.71562 34.840626Q135.43437 34.35625 134.99687 33.809376Q134.55937 33.2625 134.55937 32.559376Q134.55937 31.903126 134.91875 31.403126Q135.27812 30.8875 135.90312 30.621876Q136.54375 30.35625 137.09062 30.35625Q137.77812 30.35625 138.325 30.465626Q138.8875 30.575 139.27812 30.809376Q139.35625 31.29375 139.40312 32.2625L139.43437 32.575Q139.29375 32.590626 139.21562 32.590626L139.075 32.590626Q138.77812 31.778126 138.16875 31.309376Q137.575 30.825 136.99687 30.825Q136.40312 30.825 136.04375 31.184376Q135.68437 31.54375 135.68437 32.121876Q135.68437 32.559376 135.98125 32.903126Q136.27812 33.246876 137.35625 33.684376Q138.43437 34.121876 138.91875 34.496876Q139.41875 34.871876 139.65312 35.41875Q139.8875 35.95 139.8875 36.434376Q139.8875 37.10625 139.43437 37.7Q138.99687 38.278126 138.325 38.5125Q137.65312 38.7625 137.1375 38.7625Q135.8875 38.7625 134.84062 38.309376Q134.74687 38.23125 134.74687 38.0125Q134.74687 37.91875 134.71562 37.73125Q134.55937 36.403126 134.55937 36.16875Q134.55937 36.04375 134.60625 36.0125Q134.66875 35.965626 134.87187 35.965626ZM153.98125 38.434376Q152.5125 38.371876 150.04375 38.371876L147.93437 38.434376L146.98125 38.403126L146.23125 38.434376Q146.12187 38.41875 145.8875 38.3875Q146.05937 37.965626 146.34062 37.621876Q147.15312 36.6375 148.71562 35.059376Q150.90312 32.85625 151.59062 31.60625Q152.29375 30.35625 152.29375 29.246876Q152.29375 28.215626 151.59062 27.5125Q150.8875 26.809376 149.85625 26.809376Q149.24687 26.809376 148.66875 27.10625Q148.09062 27.3875 147.73125 27.825Q147.5125 28.10625 147.1375 28.95Q146.93437 29.41875 146.90312 29.465626Q146.84062 29.528126 146.7625 29.528126Q146.68437 29.528126 146.60625 29.45Q146.52812 29.371876 146.52812 29.246876Q146.52812 28.79375 146.96562 27.840626Q147.41875 26.871876 148.27812 26.325Q149.15312 25.778126 150.29375 25.778126Q151.79375 25.778126 152.79375 26.746876Q153.79375 27.715626 153.79375 29.059376Q153.79375 30.121876 153.10625 31.23125Q152.41875 32.325 149.96562 34.590626Q149.15312 35.340626 148.80937 35.7Q148.46562 36.04375 147.43437 37.215626Q148.93437 37.2625 150.15312 37.2625Q150.41875 37.2625 150.73125 37.246876Q151.29375 37.23125 151.40312 37.23125L152.7625 37.2625Q152.98125 37.2625 153.21562 37.04375Q153.45 36.825 153.85625 35.825L154.09062 35.825Q154.1375 35.825 154.23125 35.825Q154.27812 35.934376 154.27812 35.98125L154.2625 36.059376Q154.18437 36.340626 154.12187 37.090626Q154.09062 37.528126 153.98125 38.434376ZM163.2 32.29375Q163.2 33.29375 163.05937 34.075Q162.79375 35.41875 162.325 36.325Q161.85625 37.23125 161.21562 37.85625Q160.74687 38.325 160.21562 38.528126Q159.68437 38.746876 159.1375 38.746876Q158.16875 38.746876 157.30937 38.10625Q156.45 37.45 155.79375 35.965626Q155.15312 34.48125 155.15312 32.465626Q155.15312 30.903126 155.54375 29.465626Q155.93437 28.0125 156.575 27.215626Q157.21562 26.41875 157.84062 26.075Q158.48125 25.715626 159.21562 25.715626Q160.2625 25.715626 161.24687 26.54375Q162.23125 27.35625 162.80937 29.090626Q163.2 30.246876 163.2 32.29375ZM161.73125 31.965626Q161.73125 29.559376 161.55937 28.7Q161.29375 27.29375 160.66875 26.73125Q160.04375 26.153126 159.21562 26.153126Q158.52812 26.153126 157.90312 26.60625Q157.27812 27.059376 157.04375 28.0125Q156.65312 29.559376 156.65312 32.715626Q156.65312 35.840626 157.2625 37.090626Q157.8875 38.325 159.12187 38.325Q159.98125 38.325 160.59062 37.809376Q161.21562 37.278126 161.48125 35.85625Q161.7625 34.41875 161.74687 32.6375L161.73125 31.965626ZM171.98125 38.434376Q170.5125 38.371876 168.04375 38.371876L165.93437 38.434376L164.98125 38.403126L164.23125 38.434376Q164.12187 38.41875 163.8875 38.3875Q164.05937 37.965626 164.34062 37.621876Q165.15312 36.6375 166.71562 35.059376Q168.90312 32.85625 169.59062 31.60625Q170.29375 30.35625 170.29375 29.246876Q170.29375 28.215626 169.59062 27.5125Q168.8875 26.809376 167.85625 26.809376Q167.24687 26.809376 166.66875 27.10625Q166.09062 27.3875 165.73125 27.825Q165.5125 28.10625 165.1375 28.95Q164.93437 29.41875 164.90312 29.465626Q164.84062 29.528126 164.7625 29.528126Q164.68437 29.528126 164.60625 29.45Q164.52812 29.371876 164.52812 29.246876Q164.52812 28.79375 164.96562 27.840626Q165.41875 26.871876 166.27812 26.325Q167.15312 25.778126 168.29375 25.778126Q169.79375 25.778126 170.79375 26.746876Q171.79375 27.715626 171.79375 29.059376Q171.79375 30.121876 171.10625 31.23125Q170.41875 32.325 167.96562 34.590626Q167.15312 35.340626 166.80937 35.7Q166.46562 36.04375 165.43437 37.215626Q166.93437 37.2625 168.15312 37.2625Q168.41875 37.2625 168.73125 37.246876Q169.29375 37.23125 169.40312 37.23125L170.7625 37.2625Q170.98125 37.2625 171.21562 37.04375Q171.45 36.825 171.85625 35.825L172.09062 35.825Q172.1375 35.825 172.23125 35.825Q172.27812 35.934376 172.27812 35.98125L172.2625 36.059376Q172.18437 36.340626 172.12187 37.090626Q172.09062 37.528126 171.98125 38.434376ZM180.98125 38.434376Q179.5125 38.371876 177.04375 38.371876L174.93437 38.434376L173.98125 38.403126L173.23125 38.434376Q173.12187 38.41875 172.8875 38.3875Q173.05937 37.965626 173.34062 37.621876Q174.15312 36.6375 175.71562 35.059376Q177.90312 32.85625 178.59062 31.60625Q179.29375 30.35625 179.29375 29.246876Q179.29375 28.215626 178.59062 27.5125Q177.8875 26.809376 176.85625 26.809376Q176.24687 26.809376 175.66875 27.10625Q175.09062 27.3875 174.73125 27.825Q174.5125 28.10625 174.1375 28.95Q173.93437 29.41875 173.90312 29.465626Q173.84062 29.528126 173.7625 29.528126Q173.68437 29.528126 173.60625 29.45Q173.52812 29.371876 173.52812 29.246876Q173.52812 28.79375 173.96562 27.840626Q174.41875 26.871876 175.27812 26.325Q176.15312 25.778126 177.29375 25.778126Q178.79375 25.778126 179.79375 26.746876Q180.79375 27.715626 180.79375 29.059376Q180.79375 30.121876 180.10625 31.23125Q179.41875 32.325 176.96562 34.590626Q176.15312 35.340626 175.80937 35.7Q175.46562 36.04375 174.43437 37.215626Q175.93437 37.2625 177.15312 37.2625Q177.41875 37.2625 177.73125 37.246876Q178.29375 37.23125 178.40312 37.23125L179.7625 37.2625Q179.98125 37.2625 180.21562 37.04375Q180.45 36.825 180.85625 35.825L181.09062 35.825Q181.1375 35.825 181.23125 35.825Q181.27812 35.934376 181.27812 35.98125L181.2625 36.059376Q181.18437 36.340626 181.12187 37.090626Q181.09062 37.528126 180.98125 38.434376Z" fill-rule="nonzero"/></svg>